<svg xmlns="http://www.w3.org/2000/svg"> <symbol id="profile" viewBox="-42 0 512 512.001"> <path d="m210.351562 246.632812c33.882813 0 63.21875-12.152343 87.195313-36.128906 23.96875-23.972656 36.125-53.304687 36.125-87.191406 0-33.875-12.152344-63.210938-36.128906-87.191406-23.976563-23.96875-53.3125-36.121094-87.191407-36.121094-33.886718 0-63.21875 12.152344-87.191406 36.125s-36.128906 53.308594-36.128906 87.1875c0 33.886719 12.15625 63.222656 36.128906 87.195312 23.980469 23.96875 53.316406 36.125 87.191406 36.125zm-65.972656-189.292968c18.394532-18.394532 39.972656-27.335938 65.972656-27.335938 25.996094 0 47.578126 8.941406 65.976563 27.335938 18.394531 18.398437 27.339844 39.980468 27.339844 65.972656 0 26-8.945313 47.578125-27.339844 65.976562-18.398437 18.398438-39.980469 27.339844-65.976563 27.339844-25.992187 0-47.570312-8.945312-65.972656-27.339844-18.398437-18.394531-27.34375-39.976562-27.34375-65.976562 0-25.992188 8.945313-47.574219 27.34375-65.972656zm0 0"/> <path d="m426.128906 393.703125c-.691406-9.976563-2.089844-20.859375-4.148437-32.351563-2.078125-11.578124-4.753907-22.523437-7.957031-32.527343-3.3125-10.339844-7.808594-20.550781-13.375-30.335938-5.769532-10.15625-12.550782-19-20.160157-26.277343-7.957031-7.613282-17.699219-13.734376-28.964843-18.199219-11.226563-4.441407-23.667969-6.691407-36.976563-6.691407-5.226563 0-10.28125 2.144532-20.042969 8.5-6.007812 3.917969-13.035156 8.449219-20.878906 13.460938-6.707031 4.273438-15.792969 8.277344-27.015625 11.902344-10.949219 3.542968-22.066406 5.339844-33.042969 5.339844-10.96875 0-22.085937-1.796876-33.042968-5.339844-11.210938-3.621094-20.300782-7.625-26.996094-11.898438-7.769532-4.964844-14.800782-9.496094-20.898438-13.46875-9.753906-6.355468-14.808594-8.5-20.035156-8.5-13.3125 0-25.75 2.253906-36.972656 6.699219-11.257813 4.457031-21.003906 10.578125-28.96875 18.199219-7.609375 7.28125-14.390625 16.121094-20.15625 26.273437-5.558594 9.785157-10.058594 19.992188-13.371094 30.339844-3.199219 10.003906-5.875 20.945313-7.953125 32.523437-2.0625 11.476563-3.457031 22.363282-4.148437 32.363282-.679688 9.777344-1.023438 19.953125-1.023438 30.234375 0 26.726562 8.496094 48.363281 25.25 64.320312 16.546875 15.746094 38.4375 23.730469 65.066406 23.730469h246.53125c26.621094 0 48.511719-7.984375 65.0625-23.730469 16.757813-15.945312 25.253906-37.589843 25.253906-64.324219-.003906-10.316406-.351562-20.492187-1.035156-30.242187zm-44.90625 72.828125c-10.933594 10.40625-25.449218 15.464844-44.378906 15.464844h-246.527344c-18.933594 0-33.449218-5.058594-44.378906-15.460938-10.722656-10.207031-15.933594-24.140625-15.933594-42.585937 0-9.59375.316406-19.066407.949219-28.160157.617187-8.921874 1.878906-18.722656 3.75-29.136718 1.847656-10.285156 4.199219-19.9375 6.996094-28.675782 2.683593-8.378906 6.34375-16.675781 10.882812-24.667968 4.332031-7.617188 9.316407-14.152344 14.816407-19.417969 5.144531-4.925781 11.628906-8.957031 19.269531-11.980469 7.066406-2.796875 15.007812-4.328125 23.628906-4.558594 1.050781.558594 2.921875 1.625 5.953125 3.601563 6.167969 4.019531 13.277344 8.605469 21.136719 13.625 8.859375 5.648437 20.273437 10.75 33.910156 15.152344 13.941406 4.507812 28.160156 6.796875 42.273437 6.796875 14.113282 0 28.335938-2.289063 42.269532-6.792969 13.648437-4.410156 25.058594-9.507813 33.929687-15.164063 8.042969-5.140624 14.953125-9.59375 21.121094-13.617187 3.03125-1.972656 4.902344-3.042969 5.953125-3.601563 8.625.230469 16.566406 1.761719 23.636719 4.558594 7.636719 3.023438 14.121093 7.058594 19.265625 11.980469 5.5 5.261719 10.484375 11.796875 14.816406 19.421875 4.542969 7.988281 8.207031 16.289062 10.886719 24.660156 2.800781 8.75 5.15625 18.398438 7 28.675782 1.867187 10.433593 3.132812 20.238281 3.75 29.144531v.007812c.636719 9.058594.957031 18.527344.960937 28.148438-.003906 18.449219-5.214844 32.378906-15.9375 42.582031zm0 0"/> </symbol> <symbol id="messages" viewBox="0 0 612.041 612.041"> <g> <g> <g> <g> <path d="M124.01,327.953l-59.086,47.293c-4.104,3.266-10.1,2.608-13.387-1.494c-1.395-1.754-2.072-3.865-2.072-5.957h-0.06v-40.639c-12.391-2.054-23.527-8.011-32.053-16.517l-0.02-0.039l-0.02,0.021C6.654,299.962,0,285.2,0,268.965V59.015 C0,42.779,6.654,28.018,17.312,17.36l0.677-0.618C28.627,6.443,43.109,0.048,58.987,0.048H404.82 c16.234,0,30.997,6.654,41.654,17.312c10.658,10.678,17.312,25.419,17.312,41.655v209.95c0,16.236-6.653,30.998-17.312,41.656 l-0.678,0.617c-10.638,10.299-25.101,16.715-40.978,16.715L124.01,327.953L124.01,327.953z M68.549,347.933l45.46-36.377 c1.733-1.713,4.124-2.748,6.733-2.748h284.077c10.718,0,20.499-4.304,27.689-11.236l0.418-0.478 c7.212-7.211,11.714-17.192,11.714-28.109V59.015c0-10.937-4.502-20.917-11.714-28.109c-7.211-7.211-17.19-11.713-28.129-11.713 H58.987c-10.718,0-20.519,4.303-27.69,11.235l-0.438,0.478c-7.211,7.212-11.713,17.192-11.713,28.109v209.95 c0,10.937,4.502,20.897,11.713,28.109l-0.02,0.02c7.172,7.152,17.053,11.615,27.91,11.695h0.239 c5.279,0,9.562,4.281,9.562,9.582L68.549,347.933L68.549,347.933z M17.989,16.762l12.869,0.618 C27.332,13.834,21.754,13.634,17.989,16.762L17.989,16.762z M445.797,311.238l-12.869-0.617 C436.454,314.146,442.052,314.345,445.797,311.238z"/> </g> <path d="M83.689,93.299c-5.279,0-9.582-4.303-9.582-9.582c0-5.279,4.303-9.563,9.582-9.563h296.428 c5.279,0,9.582,4.283,9.582,9.563c0,5.279-4.303,9.582-9.582,9.582H83.689z"/> <path d="M83.689,152.266c-5.279,0-9.582-4.283-9.582-9.562c0-5.279,4.303-9.582,9.582-9.582h296.428 c5.279,0,9.582,4.303,9.582,9.582c0,5.279-4.303,9.562-9.582,9.562H83.689z"/> <path d="M491.277,327.972c-5.279,0-9.563-4.283-9.563-9.582c0-5.278,4.283-9.582,9.563-9.582h37.054 c5.279,0,9.562,4.283,9.562,9.582c0,5.279-4.303,9.582-9.562,9.582H491.277z"/> <path d="M231.903,386.939c-5.279,0-9.562-4.282-9.562-9.562s4.303-9.563,9.562-9.563h296.428c5.279,0,9.562,4.283,9.562,9.563 s-4.303,9.562-9.562,9.562H231.903z"/> <path d="M231.903,445.925c-5.279,0-9.562-4.303-9.562-9.582s4.303-9.562,9.562-9.562h296.428c5.279,0,9.562,4.303,9.562,9.562 c0,5.279-4.303,9.582-9.562,9.582H231.903z"/> <path d="M231.903,504.892c-5.279,0-9.562-4.303-9.562-9.582c0-5.278,4.303-9.582,9.562-9.582h209.97 c5.278,0,9.562,4.304,9.562,9.582c0,5.279-4.282,9.582-9.562,9.582H231.903z"/> <path d="M148.214,367.775c0-5.278,4.303-9.562,9.562-9.562c5.279,0,9.583,4.283,9.583,9.562v135.861 c0,10.938,4.502,20.898,11.713,28.109l0.438,0.479c7.191,6.933,16.973,11.236,27.69,11.236h284.077c2.608,0,5,1.055,6.732,2.748 l45.5,36.416l0.021-29.604c0-5.258,4.281-9.521,9.542-9.521v-0.039c10.937,0,20.917-4.482,28.147-11.695l-0.02-0.02 c7.211-7.211,11.713-17.191,11.713-28.109V306.039c0-10.938-4.502-20.897-11.713-28.109l-0.438-0.478 c-7.19-6.933-16.973-11.236-27.689-11.236h-49.405c-5.278,0-9.582-4.283-9.582-9.582c0-5.279,4.304-9.562,9.582-9.562h49.405 c15.877,0,30.34,6.395,40.978,16.714l0.678,0.618c10.657,10.678,17.312,25.419,17.312,41.655v197.601 c0,16.233-6.654,30.977-17.312,41.653l-0.021-0.02l-0.021,0.02c-8.546,8.527-19.683,14.482-32.093,16.535l-0.021,40.619h-0.021 c0,2.092-0.678,4.184-2.092,5.957c-3.267,4.104-9.283,4.76-13.387,1.494l-59.087-47.293H207.178 c-15.877,0-30.34-6.396-40.978-16.695l-0.677-0.617c-10.678-10.678-17.312-25.438-17.312-41.653V367.775H148.214z"/> <path d="M83.689,211.253c-5.279,0-9.582-4.303-9.582-9.563c0-5.279,4.303-9.582,9.582-9.582h209.97 c5.279,0,9.582,4.303,9.582,9.582c0,5.279-4.303,9.563-9.582,9.563H83.689z"/> </g> </g> </g> <g></g> <g></g> <g></g> <g></g> <g></g> <g></g> <g></g> <g></g> <g></g> <g></g> <g></g> <g></g> <g></g> <g></g> <g></g> </symbol> <symbol id="news" viewBox="0 0 512 512"> <g> <path d="m497 121h-114v-89c0-8.284-6.716-15-15-15h-353c-8.284 0-15 6.716-15 15v388c0 41.355 33.645 75 75 75h362c41.355 0 75-33.645 75-75v-284c0-8.284-6.716-15-15-15zm-422 344c-24.813 0-45-20.187-45-45v-373h323c0 396.466-.189 374.424.344 380.077 1.304 13.906 6.49 27.019 14.691 37.923zm407-45c0 24.813-20.187 45-45 45-3.366 0-5.695 0-9 0-24.813 0-45-20.187-45-45v-269h99z"/> <path d="m304 89h-224c-8.284 0-15 6.716-15 15s6.716 15 15 15h224c8.284 0 15-6.716 15-15s-6.716-15-15-15z"/> <path d="m304 153h-224c-8.284 0-15 6.716-15 15s6.716 15 15 15h224c8.284 0 15-6.716 15-15s-6.716-15-15-15z"/> <path d="m304 393h-224c-8.284 0-15 6.716-15 15s6.716 15 15 15h224c8.284 0 15-6.716 15-15s-6.716-15-15-15z"/> <path d="m304 217h-112c-8.284 0-15 6.716-15 15v112c0 8.284 6.716 15 15 15h112c8.284 0 15-6.716 15-15v-112c0-8.284-6.716-15-15-15zm-15 112h-82v-82h82z"/> <path d="m80 271h48c8.284 0 15-6.716 15-15s-6.716-15-15-15h-48c-8.284 0-15 6.716-15 15s6.716 15 15 15z"/> <path d="m80 335h48c8.284 0 15-6.716 15-15s-6.716-15-15-15h-48c-8.284 0-15 6.716-15 15s6.716 15 15 15z"/> </g> </symbol> <symbol id="users" viewBox="0 0 505.4 505.4"> <g> <g> <path d="M437.1,233.45c14.8-10.4,24.6-27.7,24.6-47.2c0-31.9-25.8-57.7-57.7-57.7c-31.9,0-57.7,25.8-57.7,57.7 c0,19.5,9.7,36.8,24.6,47.2c-12.7,4.4-24.3,11.2-34.1,20c-13.5-11.5-29.4-20.3-46.8-25.5c21.1-12.8,35.3-36.1,35.3-62.6 c0-40.4-32.7-73.1-73.1-73.1c-40.4,0-73.1,32.8-73.1,73.1c0,26.5,14.1,49.8,35.3,62.6c-17.2,5.2-32.9,13.9-46.3,25.2 c-9.8-8.6-21.2-15.3-33.7-19.6c14.8-10.4,24.6-27.7,24.6-47.2c0-31.9-25.8-57.7-57.7-57.7s-57.7,25.8-57.7,57.7 c0,19.5,9.7,36.8,24.6,47.2C28.5,247.25,0,284.95,0,329.25v6.6c0,0.2,0.2,0.4,0.4,0.4h122.3c-0.7,5.5-1.1,11.2-1.1,16.9v6.8 c0,29.4,23.8,53.2,53.2,53.2h155c29.4,0,53.2-23.8,53.2-53.2v-6.8c0-5.7-0.4-11.4-1.1-16.9H505c0.2,0,0.4-0.2,0.4-0.4v-6.6 C505.2,284.85,476.8,247.15,437.1,233.45z M362.3,186.15c0-23,18.7-41.7,41.7-41.7s41.7,18.7,41.7,41.7 c0,22.7-18.3,41.2-40.9,41.7c-0.3,0-0.5,0-0.8,0s-0.5,0-0.8,0C380.5,227.45,362.3,208.95,362.3,186.15z M194.9,165.35 c0-31.5,25.6-57.1,57.1-57.1s57.1,25.6,57.1,57.1c0,30.4-23.9,55.3-53.8,57c-1.1,0-2.2,0-3.3,0c-1.1,0-2.2,0-3.3,0 C218.8,220.65,194.9,195.75,194.9,165.35z M59.3,186.15c0-23,18.7-41.7,41.7-41.7s41.7,18.7,41.7,41.7c0,22.7-18.3,41.2-40.9,41.7 c-0.3,0-0.5,0-0.8,0s-0.5,0-0.8,0C77.6,227.45,59.3,208.95,59.3,186.15z M125.5,320.15H16.2c4.5-42.6,40.5-76,84.2-76.3 c0.2,0,0.4,0,0.6,0s0.4,0,0.6,0c20.8,0.1,39.8,7.8,54.5,20.3C141.7,279.75,131,298.95,125.5,320.15z M366.8,359.95 c0,20.5-16.7,37.2-37.2,37.2h-155c-20.5,0-37.2-16.7-37.2-37.2v-6.8c0-62.1,49.6-112.9,111.3-114.7c1.1,0.1,2.3,0.1,3.4,0.1 s2.3,0,3.4-0.1c61.7,1.8,111.3,52.6,111.3,114.7V359.95z M378.7,320.15c-5.5-21.1-16-40-30.3-55.6c14.8-12.8,34-20.5,55-20.7 c0.2,0,0.4,0,0.6,0s0.4,0,0.6,0c43.7,0.3,79.7,33.7,84.2,76.3H378.7z"/> </g> </g> <g> </g> <g> </g> <g> </g> <g> </g> <g> </g> <g> </g> <g> </g> <g> </g> <g> </g> <g> </g> <g> </g> <g> </g> <g> </g> <g> </g> <g> </g> </symbol> <symbol id="settings" viewBox="0 0 480 480"> <g> <g> <path d="M296,280h-8.8c-3.31,0.006-6.271-2.059-7.408-5.168c-0.976-2.56-2.024-5.064-3.152-7.544 c-1.402-3.016-0.762-6.587,1.6-8.928l6.272-6.28c9.311-9.393,9.294-24.541-0.04-33.912l-22.608-22.608 c-9.383-9.328-24.537-9.328-33.92,0l-6.272,6.264c-2.346,2.353-5.911,2.992-8.928,1.6c-2.48-1.128-4.984-2.176-7.552-3.2 c-3.125-1.129-5.204-4.101-5.192-7.424V184c0-13.255-10.745-24-24-24h-32c-13.255,0-24,10.745-24,24v8.8 c0.006,3.31-2.059,6.271-5.168,7.408c-2.56,0.976-5.064,2.024-7.544,3.152c-3.017,1.395-6.583,0.756-8.928-1.6l-6.28-6.272 c-9.382-9.322-24.53-9.322-33.912,0l-22.608,22.68c-9.328,9.383-9.328,24.537,0,33.92l6.264,6.272 c2.362,2.341,3.002,5.912,1.6,8.928c-1.128,2.48-2.176,4.984-3.16,7.552c-1.145,3.127-4.134,5.194-7.464,5.16H24 c-13.255,0-24,10.745-24,24v32c0,13.255,10.745,24,24,24h8.8c3.31-0.006,6.271,2.059,7.408,5.168 c0.976,2.56,2.024,5.064,3.152,7.544c1.402,3.016,0.762,6.587-1.6,8.928l-6.272,6.28c-9.322,9.382-9.322,24.53,0,33.912 l22.608,22.608c9.383,9.328,24.537,9.328,33.92,0l6.272-6.264c2.346-2.353,5.911-2.992,8.928-1.6 c2.48,1.128,4.984,2.176,7.552,3.2c3.141,1.116,5.238,4.091,5.232,7.424v8.8c0,13.255,10.745,24,24,24h32 c13.255,0,24-10.745,24-24v-8.8c-0.006-3.31,2.059-6.271,5.168-7.408c2.56-0.976,5.064-2.024,7.544-3.152 c3.017-1.395,6.583-0.756,8.928,1.6l6.28,6.272c9.395,9.307,24.539,9.289,33.912-0.04l22.608-22.608 c9.328-9.383,9.328-24.537,0-33.92l-6.264-6.272c-2.362-2.341-3.002-5.912-1.6-8.928c1.128-2.48,2.176-4.984,3.2-7.552 c1.129-3.125,4.101-5.204,7.424-5.192h8.8c13.255,0,24-10.745,24-24v-32C320,290.745,309.255,280,296,280z M304,336 c0,4.418-3.582,8-8,8h-8.8c-9.945,0.037-18.845,6.184-22.4,15.472c-0.848,2.24-1.765,4.445-2.752,6.616 c-4.113,9.08-2.205,19.756,4.8,26.848l6.256,6.264c3.126,3.122,3.129,8.188,0.006,11.314c-0.002,0.002-0.004,0.004-0.006,0.006 l-22.608,22.608c-3.124,3.123-8.188,3.123-11.312,0l-6.272-6.264c-7.089-7.011-17.769-8.92-26.848-4.8 c-2.168,0.984-4.376,1.904-6.6,2.752C190.183,428.37,184.04,437.262,184,447.2v8.8c0,4.418-3.582,8-8,8h-32c-4.418,0-8-3.582-8-8 v-8.8c-0.037-9.945-6.184-18.845-15.472-22.4c-2.24-0.848-4.445-1.765-6.616-2.752c-9.08-4.111-19.755-2.202-26.848,4.8 l-6.264,6.256c-3.122,3.126-8.188,3.129-11.314,0.006c-0.002-0.002-0.004-0.004-0.006-0.006L46.872,410.52 c-3.123-3.124-3.123-8.188,0-11.312l6.264-6.272c7.005-7.092,8.913-17.768,4.8-26.848c-0.984-2.168-1.904-4.376-2.752-6.6 C51.638,350.197,42.744,344.044,32.8,344H24c-4.418,0-8-3.582-8-8v-32c0-4.418,3.582-8,8-8h8.8 c9.945-0.037,18.845-6.184,22.4-15.472c0.848-2.24,1.765-4.445,2.752-6.616c4.113-9.08,2.204-19.756-4.8-26.848l-6.288-6.264 c-3.126-3.122-3.129-8.188-0.006-11.314c0.002-0.002,0.004-0.004,0.006-0.006l22.608-22.608c3.124-3.123,8.188-3.123,11.312,0 l6.272,6.264c7.089,7.011,17.769,8.92,26.848,4.8c2.168-0.984,4.376-1.904,6.6-2.752c9.294-3.543,15.451-12.438,15.496-22.384V184 c0-4.418,3.582-8,8-8h32c4.418,0,8,3.582,8,8v8.8c0.037,9.945,6.184,18.845,15.472,22.4c2.24,0.848,4.445,1.765,6.616,2.752 c9.079,4.12,19.759,2.211,26.848-4.8l6.264-6.256c3.136-3.102,8.184-3.102,11.32,0l22.608,22.608 c3.123,3.124,3.123,8.188,0,11.312l-6.264,6.272c-7.004,7.092-8.913,17.768-4.8,26.848c0.984,2.168,1.904,4.376,2.752,6.6 c3.554,9.281,12.446,15.424,22.384,15.464h8.8c4.418,0,8,3.582,8,8V336z"/> </g> </g> <g> <g> <path d="M231.84,316.8c-0.08-1.92-0.216-3.832-0.448-5.736c-0.256-2.048-0.56-4.08-0.984-6.072c-0.28-1.304-0.648-2.592-1-3.888 c-0.448-1.648-0.952-3.272-1.512-4.872c-0.392-1.112-0.8-2.216-1.216-3.312c-1.03-2.562-2.208-5.063-3.528-7.488 c-0.104-0.184-0.168-0.384-0.272-0.568c-2.081-3.704-4.491-7.215-7.2-10.488c-0.232-0.288-0.496-0.56-0.736-0.84 c-1.104-1.304-2.24-2.568-3.432-3.776c-0.624-0.648-1.28-1.256-1.936-1.88c-0.8-0.744-1.6-1.48-2.4-2.184 c-0.971-0.843-1.96-1.659-2.968-2.448l-1.312-0.976C190.517,253,175.466,247.992,160,248c-0.8,0-1.6,0.12-2.4,0.152 c-1.704,0.048-3.416,0.144-5.136,0.32c-0.904,0.096-1.816,0.2-2.72,0.328c-2.608,0.343-5.196,0.827-7.752,1.448 c-38.521,9.954-61.679,49.252-51.725,87.773c6.56,25.384,26.392,45.2,51.781,51.739c0.128,0,0.264,0.04,0.4,0.072 c2.763,0.689,5.562,1.224,8.384,1.6c1.864,0.232,3.728,0.28,5.6,0.368c1.248,0.064,2.4,0.248,3.704,0.248 c2.28,0,4.648-0.152,7.064-0.392c0.256,0,0.512-0.072,0.8-0.104c1.944-0.216,3.912-0.504,5.92-0.904 c0.8-0.152,1.544-0.352,2.312-0.528c1.408-0.328,2.808-0.672,4.248-1.096c1.12-0.336,2.208-0.728,3.304-1.112 c1.096-0.384,2.232-0.8,3.368-1.232c1.136-0.432,2.088-0.928,3.12-1.408c1.344-0.616,2.68-1.224,4-1.944h0.048 c7.466-3.997,14.362-8.977,20.504-14.808c1.659-1.548,3.102-3.314,4.288-5.248c6.244-10.01,10.346-21.205,12.048-32.88 c0.224-1.544,0.424-3.088,0.544-4.664c0.112-1.448,0.192-2.888,0.224-4.328c0-0.456,0.064-0.888,0.064-1.344 C232,318.928,231.888,317.888,231.84,316.8z M215.896,322.04c0,0.664-0.056,1.328-0.096,1.984 c-0.144,1.936-0.392,3.872-0.72,5.816c-2.99,16.633-13.317,31.033-28.112,39.2c-0.992,0.52-1.968,1.008-2.944,1.456l-0.664,0.32 c-4.648,2.11-9.554,3.595-14.592,4.416c-0.352,0.056-0.712,0.12-1.072,0.168c-1,0.144-1.984,0.264-2.96,0.352 c-1.288,0.112-2.584,0.176-3.904,0.2c-0.56,0-1.112,0-1.672,0c-1.893-0.022-3.783-0.139-5.664-0.352l-0.96-0.112 c-2.2-0.288-4.382-0.699-6.536-1.232c-29.962-7.669-48.034-38.175-40.366-68.137c5.067-19.798,20.517-35.264,40.31-40.351l0-0.008 c4.596-1.159,9.316-1.751,14.056-1.76c2.287,0.013,4.572,0.168,6.84,0.464c0.608,0.072,1.208,0.184,1.808,0.272 c1.728,0.272,3.44,0.616,5.128,1.048c0.552,0.144,1.104,0.272,1.648,0.424c4.254,1.228,8.349,2.952,12.2,5.136 c0.616,0.36,1.216,0.736,1.824,1.112c1.264,0.8,2.488,1.6,3.696,2.512c0.648,0.472,1.304,0.936,1.928,1.44 c1.57,1.254,3.073,2.589,4.504,4c0.568,0.576,1.088,1.208,1.64,1.808c0.92,1,1.816,2.024,2.672,3.104 c0.592,0.744,1.16,1.512,1.72,2.288c0.8,1.152,1.6,2.352,2.32,3.568c0.4,0.664,0.8,1.312,1.208,1.992 c1.032,1.899,1.951,3.857,2.752,5.864c0.32,0.8,0.592,1.6,0.88,2.4c0.52,1.472,0.968,2.96,1.36,4.464 c0.2,0.8,0.424,1.512,0.592,2.288c0.467,2.162,0.806,4.35,1.016,6.552c0.048,0.584,0.048,1.176,0.088,1.76 C215.936,318.336,215.968,320.184,215.896,322.04z"/> </g> </g> <g> <g> <path d="M456,168h-25.16c-3.355,0.034-6.356-2.079-7.456-5.248c-2.481-7.431-5.483-14.679-8.984-21.688 c-1.486-3.027-0.867-6.666,1.536-9.032l17.84-17.864c9.364-9.371,9.364-24.557,0-33.928L399.76,46.28 c-9.371-9.364-24.557-9.364-33.928,0L348,64.104c-2.363,2.402-5.997,3.024-9.024,1.544c-7.01-3.519-14.26-6.537-21.696-9.032 c-3.182-1.089-5.31-4.093-5.28-7.456V24c0-13.255-10.745-24-24-24h-48c-13.255,0-24,10.745-24,24v25.16 c0.034,3.355-2.078,6.356-5.248,7.456c-7.432,2.494-14.68,5.51-21.688,9.024c-3.027,1.491-6.668,0.872-9.032-1.536l-17.864-17.84 c-9.382-9.337-24.546-9.337-33.928,0L94.288,80.216c-9.369,9.372-9.369,24.564,0,33.936l26.232,26.28 c3.173,3.074,8.238,2.994,11.312-0.18c2.999-3.096,3.006-8.012,0.016-11.116L105.6,102.864c-3.123-3.124-3.123-8.188,0-11.312 L139.552,57.6c3.124-3.123,8.188-3.123,11.312,0l17.872,17.84c7.231,7.274,18.311,9.092,27.488,4.512 c6.337-3.173,12.889-5.897,19.608-8.152c9.698-3.283,16.21-12.401,16.168-22.64V24c0-4.418,3.582-8,8-8h48c4.418,0,8,3.582,8,8 v25.16c-0.041,10.237,6.471,19.352,16.168,22.632c6.722,2.256,13.277,4.982,19.616,8.16c9.179,4.556,20.244,2.736,27.48-4.52 L377.136,57.6c3.124-3.123,8.188-3.123,11.312,0L422.4,91.56c3.118,3.123,3.118,8.181,0,11.304l-17.84,17.872 c-7.267,7.235-9.084,18.31-4.512,27.488c3.173,6.337,5.897,12.889,8.152,19.608c3.281,9.7,12.4,16.212,22.64,16.168H456 c4.418,0,8,3.582,8,8v48c0,4.418-3.582,8-8,8h-25.16c-10.237-0.041-19.352,6.471-22.632,16.168 c-2.255,6.722-4.982,13.277-8.16,19.616c-4.564,9.178-2.743,20.247,4.52,27.48l17.84,17.872c3.123,3.124,3.123,8.188,0,11.312 L388.44,374.4c-3.123,3.118-8.181,3.118-11.304,0l-26.288-26.232c-3.074-3.174-8.139-3.254-11.312-0.18 c-3.174,3.074-3.254,8.139-0.18,11.312c0.064,0.066,0.13,0.132,0.196,0.196l26.28,26.232c9.371,9.364,24.557,9.364,33.928,0 l33.952-33.944c9.369-9.372,9.369-24.564,0-33.936L415.896,300c-2.4-2.364-3.021-5.997-1.544-9.024 c3.519-7.01,6.537-14.26,9.032-21.696c1.089-3.182,4.093-5.31,7.456-5.28H456c13.255,0,24-10.745,24-24v-48 C480,178.745,469.255,168,456,168z"/> </g> </g> <g> <g> <path d="M337.536,142.464c-40.638-40.553-106.434-40.553-147.072,0c-3.069,3.178-2.981,8.243,0.197,11.312 c3.1,2.994,8.015,2.994,11.115,0c34.135-34.596,89.852-34.969,124.448-0.834c34.596,34.135,34.969,89.852,0.834,124.448 c-0.276,0.28-0.554,0.558-0.834,0.834c-3.178,3.07-3.266,8.134-0.196,11.312c3.07,3.178,8.134,3.266,11.312,0.196 c0.066-0.064,0.132-0.13,0.196-0.196C378.089,248.898,378.089,183.102,337.536,142.464z"/> </g> </g> <g></g> <g></g> <g></g> <g></g> <g></g> <g></g> <g></g> <g></g> <g></g> <g></g> <g></g> <g></g> <g></g> <g></g> <g></g> </symbol> </svg>