<svg xmlns="http://www.w3.org/2000/svg" display="none">
    <symbol id="upload" viewBox="-42 0 512 512.001">
    <g>
	<path d="M0,389.581C0,444.8,41.338,490.616,95.611,499.462l19.139,1.529h382.5l19.139-1.529C570.662,490.616,612,444.8,612,389.581
		c0-48.516-31.936-89.798-76.527-105.098c-1.614-96.084-82.343-173.474-181.653-173.474c-71.632,0-133.583,40.253-163.181,98.755
		c-13.993-15.022-34.244-24.48-56.777-24.48c-42.256,0-76.5,33.271-76.5,74.274c0,10.71,2.336,20.892,6.509,30.099
		C26.038,307.851,0,345.767,0,389.581z M97.225,299.644l-9.208-24.063c-2.142-4.618-3.227-9.542-3.227-14.66
		c0-19.973,20.196-49.655,51.881-49.655c10.877,0,23.618,5.424,30.934,13.13l29.905,20.808l25.426-33.91
		c28.819-42.951,77.39-72.466,132.136-72.466c77.251,0,153.501,73.635,154.725,147.242v26.094l26.9,7.203
		c30.321,10.211,50.657,37.666,50.657,68.322c0,35.523-36.387,80.033-73.051,85.875h-16.83H389.454v26.9h-28.18V375.282h55.998
		L306,250.1L194.727,375.282h55.525v125.182h-27.707v-26.9H117.699l-12.713-1.002c-36.665-5.842-77.167-49.322-77.167-84.873
		C27.818,359.927,51.491,315.417,97.225,299.644z"/>
	</g>
    </symbol>
	<symbol id="edit" viewBox="0 0 91 91">
	 <g>
        <path d="M36.682,45.397l-0.002,0.001c-0.002,0.002-0.002,0.004-0.002,0.004c-0.137,0.139-0.24,0.307-0.324,0.486   c-0.023,0.045-0.039,0.086-0.057,0.133c-0.018,0.046-0.043,0.088-0.057,0.137l-4.008,14.826c-0.158,0.588,0.01,1.215,0.439,1.646   c0.324,0.323,0.758,0.498,1.201,0.498c0.148,0,0.299-0.019,0.443-0.06l14.256-3.853c0.094,0.016,0.184,0.055,0.279,0.055   c0.436,0,0.871-0.166,1.203-0.498l23.086-23.088c1.23-1.231,1.91-2.868,1.91-4.609c0-1.741-0.68-3.378-1.91-4.609l-4.154-4.154   c-2.461-2.463-6.76-2.459-9.217,0L36.682,45.397L36.682,45.397z M62.174,24.715c1.174-1.177,3.23-1.176,4.408,0.001l4.154,4.153   c0.59,0.589,0.914,1.372,0.914,2.206s-0.324,1.616-0.914,2.206l-1.25,1.25l-8.564-8.563L62.174,24.715z M58.518,28.372l8.564,8.563   l-18.23,18.231l-8.566-8.564L58.518,28.372z M39.285,50.407l6.137,6.138l-9.135,2.471l2.469-9.136L39.285,50.407z"/>
        <rect height="15.087" transform="matrix(0.7072 0.707 -0.707 0.7072 45.0547 -26.2009)" width="3.4" x="52.459" y="33.749"/>
        <path d="M20.961,74.166h45.74c3.596,0,6.518-2.925,6.518-6.52V44.628H69.82v23.019c0,1.721-1.398,3.119-3.119,3.119H22.662V25.662   h29.012v-3.4H20.961c-0.939,0-1.699,0.761-1.699,1.7v48.503C19.262,73.404,20.021,74.166,20.961,74.166z"/>
    </g>
	</symbol>
	<symbol xmlns="http://www.w3.org/2000/svg" focusable="false" viewBox="0 0 12 12" id="github">
      <path fill="#000" d="M6 0a6 6 0 110 12A6 6 0 016 0zm0 .98C3.243.98 1 3.223 1 6a5.02 5.02 0 003.437 4.77.594.594 0 00.045.005c.203.01.279-.129.279-.25l-.007-.854c-1.39.303-1.684-.674-1.684-.674-.227-.58-.555-.734-.555-.734-.454-.312.034-.306.034-.306.365.026.604.288.708.43l.058.088c.446.767 1.17.546 1.455.418.046-.325.174-.546.317-.672-1.11-.127-2.277-.558-2.277-2.482 0-.548.195-.996.515-1.348l-.03-.085c-.064-.203-.152-.658.079-1.244l.04-.007c.124-.016.548-.013 1.335.522A4.77 4.77 0 016 3.408c.425.002.853.058 1.252.17.955-.65 1.374-.516 1.374-.516.272.692.1 1.202.05 1.33.32.35.513.799.513 1.347 0 1.93-1.169 2.354-2.283 2.478.18.155.34.462.34.93l-.006 1.378c0 .13.085.282.323.245A5.02 5.02 0 0011 6C11 3.223 8.757.98 6 .98z"></path>
  </symbol>
  <symbol xmlns="http://www.w3.org/2000/svg" viewBox="0 0 64 64" id="vk">
    <g id="_32-vk">
      <rect fill="#4489c8" height="64" rx="11.2" ry="11.2" width="64"></rect>
      <path fill="#fff" d="M9.62,19.77H17.3a.79.79,0,0,1,.74.51c.85,2.19,4.38,10.76,7.61,11.46,2.4,0,1.55-11.4-1.5-11.4-.8,0,1.42-1.42,1.57-1.48a16.38,16.38,0,0,1,8.66,0c1.53.64,1.79,2.43,1.83,3.95s-1.7,8,.59,8.7c3,.92,6.86-8.49,7.76-10.8a.79.79,0,0,1,.74-.5h8.55a.8.8,0,0,1,.74,1.11,74.74,74.74,0,0,1-6.31,11.52,1.59,1.59,0,0,0,.16,2C51,37.58,58,45.34,54,45.34H45.37a1.57,1.57,0,0,1-1.18-.53c-1.34-1.48-5.24-5.6-7-5.27-1.46.27-1.6,2.75-1.53,4.37a1.6,1.6,0,0,1-1.48,1.68c-1.53.09-3.62.13-3.81.12-6.1-.39-9.71-4.46-13.16-9A56.33,56.33,0,0,1,8.86,20.83.81.81,0,0,1,9.62,19.77Z"></path>
    </g>
  </symbol>
  <symbol xmlns="http://www.w3.org/2000/svg" viewBox="0 0 64 64" id="twitter">
    <g id="_6-twitter">
      <rect fill="#00aade" height="64" rx="11.2" ry="11.2" transform="translate(64 64) rotate(180)" width="64"></rect>
      <path fill="#fff" d="M47.2,20.8a8,8,0,0,0,4-4.8c-1.6,1.6-5,2.13-5,2.13A8,8,0,0,0,32.37,25.6H32a23.45,23.45,0,0,1-16.8-8.8S10.4,23.2,17.6,28c0,0-3.2,0-4-.8,0,0-.8,4.8,6.4,8a3.86,3.86,0,0,1-3.2,0c0,3.09,3.22,5.6,7.2,5.6,0,2.21-5.37,4-12,4C22.4,52,47.2,50.4,48.8,23.2l4-4Z"></path>
    </g>
  </symbol>
  <symbol id="website" xmlns="http://www.w3.org/2000/svg" viewBox="0 0 200 200">
    <path d="M100,175.69A75.69,75.69,0,1,1,175.69,100,75.78,75.78,0,0,1,100,175.69Zm0-141.38A65.69,65.69,0,1,0,165.69,100,65.77,65.77,0,0,0,100,34.31Z"></path>
    <path d="M100,175.69c-19.49,0-30-39-30-75.69s10.51-75.69,30-75.69,30,39,30,75.69S119.49,175.69,100,175.69Zm0-141.38c-8.15,0-20,25.59-20,65.69,0,18.33,2.5,35.49,7,48.32,3.73,10.55,8.82,17.37,13,17.37,8.15,0,20-25.59,20-65.69,0-18.33-2.5-35.49-7-48.32C109.23,41.13,104.14,34.31,100,34.31Z"></path>
    <path d="M170.69,105H29.31a5,5,0,0,1,0-10H170.69a5,5,0,0,1,0,10Z"></path>
    <path d="M163.05,73H37a5,5,0,0,1,0-10h126.1a5,5,0,0,1,0,10Z"></path>
    <path d="M163.05,137H37a5,5,0,0,1,0-10h126.1a5,5,0,0,1,0,10Z"></path>
  </symbol>
  <symbol xmlns="http://www.w3.org/2000/svg" xmlns:xlink="http://www.w3.org/1999/xlink" viewBox="0 0 48 48" id="instagram">
		<g id="img-instagram-black-logo-icon-147122">
			<path xmlns="http://www.w3.org/2000/svg" fill="black" fill-rule="evenodd" d="M0 24C0 10.7452 10.7452 0 24 0C37.2548 0 48 10.7452 48 24C48 37.2548 37.2548 48 24 48C10.7452 48 0 37.2548 0 24ZM24.0012 11.2C20.5249 11.2 20.0886 11.2152 18.7233 11.2773C17.3606 11.3397 16.4305 11.5555 15.6166 11.872C14.7747 12.1989 14.0606 12.6363 13.3491 13.348C12.6371 14.0595 12.1997 14.7736 11.8717 15.6152C11.5544 16.4294 11.3384 17.3598 11.2771 18.7219C11.216 20.0873 11.2 20.5238 11.2 24.0001C11.2 27.4764 11.2155 27.9114 11.2773 29.2767C11.34 30.6394 11.5557 31.5695 11.872 32.3834C12.1992 33.2253 12.6365 33.9394 13.3483 34.6509C14.0595 35.3629 14.7736 35.8013 15.615 36.1283C16.4294 36.4448 17.3598 36.6605 18.7222 36.7229C20.0876 36.7851 20.5236 36.8003 23.9996 36.8003C27.4762 36.8003 27.9111 36.7851 29.2765 36.7229C30.6391 36.6605 31.5703 36.4448 32.3848 36.1283C33.2264 35.8013 33.9394 35.3629 34.6506 34.6509C35.3626 33.9394 35.8 33.2253 36.128 32.3837C36.4427 31.5695 36.6587 30.6391 36.7227 29.277C36.784 27.9116 36.8 27.4764 36.8 24.0001C36.8 20.5238 36.784 20.0876 36.7227 18.7222C36.6587 17.3595 36.4427 16.4294 36.128 15.6155C35.8 14.7736 35.3626 14.0595 34.6506 13.348C33.9386 12.636 33.2266 12.1987 32.384 11.872C31.5679 11.5555 30.6373 11.3397 29.2746 11.2773C27.9092 11.2152 27.4746 11.2 23.9972 11.2H24.0012Z" clip-rule="evenodd"/><path xmlns="http://www.w3.org/2000/svg" fill="black" fill-rule="evenodd" d="M22.8529 13.5067C23.1937 13.5062 23.574 13.5067 24.0012 13.5067C27.4188 13.5067 27.8239 13.519 29.1735 13.5803C30.4215 13.6374 31.0989 13.8459 31.5501 14.0211C32.1474 14.2531 32.5733 14.5304 33.021 14.9784C33.469 15.4264 33.7464 15.8531 33.9789 16.4505C34.1541 16.9011 34.3629 17.5785 34.4197 18.8265C34.481 20.1758 34.4944 20.5812 34.4944 23.9972C34.4944 27.4132 34.481 27.8186 34.4197 29.1679C34.3626 30.4159 34.1541 31.0933 33.9789 31.5439C33.7469 32.1413 33.469 32.5666 33.021 33.0144C32.573 33.4624 32.1477 33.7397 31.5501 33.9717C31.0994 34.1477 30.4215 34.3557 29.1735 34.4128C27.8242 34.4741 27.4188 34.4874 24.0012 34.4874C20.5833 34.4874 20.1782 34.4741 18.8289 34.4128C17.5809 34.3552 16.9035 34.1466 16.4521 33.9714C15.8547 33.7394 15.428 33.4621 14.98 33.0141C14.532 32.5661 14.2547 32.1405 14.0222 31.5429C13.847 31.0922 13.6382 30.4149 13.5814 29.1669C13.52 27.8175 13.5078 27.4122 13.5078 23.994C13.5078 20.5758 13.52 20.1726 13.5814 18.8233C13.6384 17.5753 13.847 16.8979 14.0222 16.4467C14.2542 15.8494 14.532 15.4227 14.98 14.9747C15.428 14.5267 15.8547 14.2494 16.4521 14.0168C16.9033 13.8408 17.5809 13.6328 18.8289 13.5755C20.0097 13.5222 20.4673 13.5062 22.8529 13.5035V13.5067ZM30.8338 15.632C29.9858 15.632 29.2978 16.3193 29.2978 17.1675C29.2978 18.0155 29.9858 18.7035 30.8338 18.7035C31.6818 18.7035 32.3698 18.0155 32.3698 17.1675C32.3698 16.3195 31.6818 15.632 30.8338 15.632ZM24.0012 17.4267C20.371 17.4267 17.4278 20.37 17.4278 24.0001C17.4278 27.6303 20.371 30.5722 24.0012 30.5722C27.6314 30.5722 30.5735 27.6303 30.5735 24.0001C30.5735 20.37 27.6314 17.4267 24.0012 17.4267Z" clip-rule="evenodd"/><path xmlns="http://www.w3.org/2000/svg" fill="black" fill-rule="evenodd" d="M24.0012 19.7334C26.3575 19.7334 28.2679 21.6436 28.2679 24.0001C28.2679 26.3564 26.3575 28.2668 24.0012 28.2668C21.6446 28.2668 19.7345 26.3564 19.7345 24.0001C19.7345 21.6436 21.6446 19.7334 24.0012 19.7334Z" clip-rule="evenodd"/>
		</g>
  </symbol>
  <symbol version="1.0" xmlns="http://www.w3.org/2000/svg" preserveAspectRatio="xMidYMid meet" viewBox="0 0 512.000000 512.000000" id="youtube">
    <g transform="translate(0.000000,512.000000) scale(0.100000,-0.100000)" fill="#ff0000" stroke="none">
      <path d="M828 5109 c-251 -37 -480 -171 -630 -369 -67 -88 -142 -245 -170
-355 l-23 -90 0 -1735 0 -1735 23 -90 c30 -120 116 -291 192 -382 156 -188
383 -313 621 -343 115 -14 3323 -14 3438 0 431 55 776 400 831 831 14 115 14
3323 0 3438 -30 238 -155 465 -343 621 -88 74 -260 161 -377 192 l-85 23
-1710 1 c-940 1 -1736 -2 -1767 -7z m2382 -1559 c146 -6 303 -15 350 -20 153
-18 251 -85 311 -214 67 -144 84 -297 84 -756 0 -459 -17 -612 -84 -756 -60
-129 -157 -195 -311 -214 -327 -39 -1673 -39 -2000 0 -154 19 -255 89 -316
218 -63 134 -90 425 -81 872 7 295 16 409 43 520 51 205 161 307 359 330 229
27 1165 38 1645 20z"></path>
      <path d="M2280 2600 l0 -398 375 197 c206 108 375 198 375 201 0 3 -120 68
-267 145 -147 77 -316 165 -375 197 l-108 56 0 -398z"></path>
    </g>
  </symbol>
   <symbol version="1.1" xml:space="preserve" xmlns="http://www.w3.org/2000/svg" xmlns:xlink="http://www.w3.org/1999/xlink" viewBox="0 0 187 187" id="facebook">
    <defs></defs>
    <g id="Layer_x0020_1">
      <rect height="187" rx="18" ry="18" width="187" fill="#485992"></rect>
      <path fill="#FEFEFE" d="M131 79l0 -12c0,-6 4,-7 6,-7 3,0 18,0 18,0l0 -27 -24 0c-27,0 -33,20 -33,32l0 14 -15 0 0 19 0 12 16 0c0,35 0,77 0,77l30 0c0,0 0,-42 0,-77l23 0 1 -12 2 -19 -24 0z"></path>
    </g>
  </symbol>
  <symbol id="mainLink" version="1.1" xmlns="http://www.w3.org/2000/svg" xmlns:xlink="http://www.w3.org/1999/xlink" x="0px" y="0px" xml:space="preserve" viewBox="0 0 612 612">
    <g>
      <g id="Link">
        <g>
          <path d="M350.179,215.462c-6.693-4.303-14.497-5.47-21.707-3.863c-7.134,1.587-13.674,5.89-17.939,12.527
				c-4.284,6.674-5.45,14.439-3.862,21.611c1.567,7.172,5.871,13.75,12.526,18.016c27.674,17.729,44.179,47.832,44.179,80.497
				c0,25.551-9.945,49.553-27.999,67.606l-114.75,114.75c-18.073,18.073-42.094,28.019-67.626,28.019
				c-52.728,0-95.625-42.897-95.625-95.625c0-25.551,9.945-49.553,27.999-67.606l54.43-54.449c5.737-5.737,8.53-13.292,8.415-20.808
				c-0.134-7.172-2.926-14.287-8.415-19.757c-5.604-5.604-12.948-8.415-20.272-8.415c-7.344,0-14.688,2.792-20.272,8.415
				l-54.43,54.449C15.912,379.708,0,418.13,0,459c0,84.36,68.64,153,153,153c40.87,0,79.292-15.912,108.19-44.829l114.75-114.75
				c28.897-28.859,44.81-67.301,44.81-108.171C420.75,291.943,394.377,243.806,350.179,215.462z M459,0
				c-40.87,0-79.292,15.912-108.19,44.829l-114.75,114.75c-28.898,28.859-44.81,67.301-44.81,108.152
				c0,52.307,26.374,100.463,70.571,128.807c6.694,4.283,14.497,5.45,21.707,3.844c7.133-1.568,13.674-5.871,17.939-12.508
				c4.284-6.693,5.451-14.458,3.863-21.63c-1.568-7.172-5.871-13.751-12.527-17.997c-27.655-17.748-44.179-47.851-44.179-80.516
				c0-25.551,9.945-49.553,27.999-67.607l114.75-114.75C409.447,67.32,433.468,57.375,459,57.375
				c52.728,0,95.625,42.897,95.625,95.606c0,25.551-9.945,49.553-27.999,67.607l-54.43,54.43c-5.737,5.737-8.53,13.292-8.415,20.808
				c0.134,7.172,2.926,14.287,8.415,19.756c5.604,5.604,12.947,8.396,20.292,8.396c7.344,0,14.688-2.792,20.272-8.396l54.43-54.449
				C596.088,232.292,612,193.851,612,152.981C612,68.64,543.36,0,459,0z"></path>
        </g>
      </g>
    </g>
  </symbol>
  <symbol xmlns="http://www.w3.org/2000/svg" version="1.1" viewBox="0 0 32 32" id="form_error">
    <g transform="scale(2)">
      <circle fill="#f44336" cx="8" cy="8" r="7"></circle>
      <rect fill="#fff" width="2" height="10" x="-.98" y="-16.29" transform="rotate(135)"></rect>
      <rect fill="#fff" width="2" height="10" x="-12.29" y="-5.01" transform="rotate(-135)"></rect>
    </g>
  </symbol>
  <symbol xmlns="http://www.w3.org/2000/svg" version="1" viewBox="0 0 32 32" id="error_info">
    <rect fill="#db3c30" width="28" height="28" x="-30" y="-30" rx="14" ry="14" transform="matrix(0,-1,-1,0,0,0)"></rect>
    <g opacity=".2" transform="matrix(1 0 0 1.3846 -530 499.53)">
      <path d="m545-355h2v9.389h-2zm0 11.556h2v1.4445h-2z"></path>
    </g>
    <g transform="matrix(1 0 0 1.3846 -530 498.53)">
      <path fill="#fff" d="m545-355h2v9.389h-2zm0 11.556h2v1.4445h-2z"></path>
    </g>
    <path fill="#fff" opacity=".2" d="m16 2c-7.756 0-14 6.244-14 14 0 0.169 0.0195 0.333 0.0254 0.5 0.2637-7.5206 6.3874-13.5 13.975-13.5 7.587 0 13.711 5.9794 13.975 13.5 0.005-0.167 0.025-0.331 0.025-0.5 0-7.756-6.244-14-14-14z"></path>
    <path opacity=".2" d="m2.0254 16.5c-0.0059 0.167-0.0254 0.331-0.0254 0.5 0 7.756 6.244 14 14 14s14-6.244 14-14c0-0.16884-0.01952-0.33264-0.02539-0.5-0.264 7.521-6.388 13.5-13.975 13.5-7.5872 0-13.711-5.979-13.975-13.5z"></path>
  </symbol>
  <symbol version="1.1" xmlns="http://www.w3.org/2000/svg" xmlns:xlink="http://www.w3.org/1999/xlink" xmlnsSketch="http://www.bohemiancoding.com/sketch/ns" viewBox="0 0 57 64" id="logout">
    <g id="Page-1" stroke="none" stroke-width="1" fill-rule="evenodd" sketchType="MSPage">
      <g id="Logout" sketchType="MSLayerGroup" transform="translate(1.000000, 1.000000)" stroke="#6B6C6E" stroke-width="2">
        <path d="M38,32 L38,52 C38,53.1 37.1,54 36,54 L32.4,54" id="Shape" sketchType="MSShapeGroup"></path>
        <path d="M1.9,0 L36,0 C37.1,0 38,0.9 38,2 L38,26" id="Shape" sketchType="MSShapeGroup"></path>
        <path d="M0,2 C0,0.9 0.9,0 2,0 L30.1,8 C31.2,8 32.1,8.9 32.1,10 L32.1,60 C32.1,61.1 31.2,62 30.1,62 L2,54 C0.9,54 0,53.1 0,52 L0,2 L0,2 Z" id="Shape" sketchType="MSShapeGroup"></path>
        <circle id="Oval" sketchType="MSShapeGroup" cx="25.5" cy="34.5" r="1.5"></circle>
        <g id="Group" transform="translate(35.000000, 20.000000)" sketchType="MSShapeGroup">
          <path d="M13.2,13.7 L13.2,17.4 C13.2,17.7 13,18 12.6,18 L0.9,10.2 C0.6,10 0.3,9.9 0.3,9.6 L0.3,8.5 C0.3,8.3 0.5,8.1 0.9,7.9 L12.6,0 C12.9,0 13.1,0.3 13.1,0.6 L13.1,4" id="Shape"></path>
          <path d="M11.3,5 L21,5" id="Shape"></path>
          <path d="M11.3,13 L21,13" id="Shape"></path>
        </g>
      </g>
    </g>
  </symbol>
  <symbol version="1.0" xmlns="http://www.w3.org/2000/svg" preserveAspectRatio="xMidYMid meet" viewBox="0 0 512.000000 512.000000" id="login">
    <g transform="translate(0.000000,512.000000) scale(0.100000,-0.100000)" stroke="none">
      <path d="M2175 5108 c-27 -5 -87 -27 -133 -48 -108 -51 -222 -161 -270 -260
      -55 -113 -62 -160 -62 -411 0 -218 1 -227 23 -260 32 -49 105 -83 158 -74 53
      9 115 64 129 113 5 21 10 125 10 232 0 184 2 198 24 246 13 27 42 66 66 87 81
      69 55 67 834 66 l701 -1 -217 -73 c-280 -94 -342 -137 -412 -284 l-31 -66 -3
      -1707 -2 -1708 -368 0 c-412 0 -426 2 -502 67 -24 21 -53 60 -66 87 -22 48
      -24 62 -24 246 0 107 -5 211 -10 232 -14 49 -76 104 -129 113 -53 9 -126 -25
      -158 -74 -22 -33 -23 -42 -23 -260 0 -251 7 -298 62 -411 48 -99 162 -209 269
      -259 46 -22 111 -44 143 -50 36 -7 208 -11 433 -11 l373 0 0 -143 c0 -98 5
      -159 15 -193 23 -79 86 -168 155 -218 83 -61 145 -81 255 -81 l90 0 670 224
      c369 123 692 235 719 248 58 29 132 101 169 163 60 104 57 -22 57 2135 0 2139
      3 2017 -55 2124 -33 60 -114 140 -173 170 -103 53 -59 51 -1412 50 -747 -1
      -1275 -5 -1305 -11z m2594 -342 l26 -26 3 -1953 c3 -1809 2 -1954 -14 -1984
      -9 -18 -31 -38 -48 -46 -17 -8 -319 -110 -671 -227 -694 -231 -671 -226 -726
      -170 l-29 28 0 1961 0 1960 23 26 c18 21 142 65 677 245 710 238 707 237 759
      186z"></path>
            <path d="M1330 3829 c-83 -33 -126 -142 -86 -217 8 -15 137 -148 285 -297
      l271 -270 -849 -5 c-838 -5 -850 -5 -877 -26 -53 -39 -69 -71 -69 -134 0 -63
      16 -95 69 -134 27 -21 39 -21 877 -26 l849 -5 -271 -270 c-148 -148 -277 -282
      -285 -297 -8 -15 -14 -47 -14 -71 0 -113 126 -190 226 -139 23 12 214 196 456
      439 358 359 418 424 429 461 26 89 30 84 -429 545 -230 230 -434 427 -454 438
      -40 21 -88 24 -128 8z"></path>
          </g>
  </symbol>
  <symbol version="1.1" xmlns="http://www.w3.org/2000/svg" xmlns:xlink="http://www.w3.org/1999/xlink" xmlnsSketch="http://www.bohemiancoding.com/sketch/ns" viewBox="0 0 612 792" id="save">
    <g><g><defs><rect height="512" style="fill:#00AEEF" id="SVGID_1_" width="512" x="50" y="140"/></defs><clipPath style="fill:#00AEEF" id="SVGID_2_"><use style="overflow:visible; fill:#00AEEF" xlink:href="#SVGID_1_"/></clipPath><path style="fill:#FFF" class="st0" d="M562,619V254l0,0c-0.1-2.9-1.2-6.1-4.1-9L457.4,144.5c0,0-5.3-4.9-11.7-4.5l0,0H83c0,0-33,0-33,33v446    c0,0,0,33,33,33h446C529,652,562,652,562,619L562,619z M453,303c0,22-22,22-22,22H181c-22,0-22-22-22-22V198c0-22,22-22,22-22h250    c22,0,22,22,22,22V303L453,303z M526,594c0,22-22,22-22,22H108c-22,0-22-22-22-22V394c0-22,22-22,22-22h396c22,0,22,22,22,22V594    L526,594z M435,296v-91c0,0,0-15-15-15h-49c0,0-15,0-15,15v91c0,0,0,15,15,15h49C420,311,435,311,435,296L435,296z"/></g></g>
  </symbol>
   <symbol xmlns="http://www.w3.org/2000/svg" xmlns:xlink="http://www.w3.org/1999/xlink" version="1.1" xml:space="preserve" viewBox="0 0 256 256" id="left-arrow">
    <g transform="translate(128 128) scale(0.72 0.72)">
      <g transform="translate(-175.05 -175.05000000000004) scale(3.89 3.89)">
        <path d="M 34.844 79.846 c -2.979 0 -5.958 -1.134 -8.225 -3.401 L 3.407 53.231 C 1.21 51.035 0 48.114 0 45.007 c 0 -3.107 1.21 -6.028 3.407 -8.225 l 23.227 -23.227 c 4.526 -4.527 11.9 -4.534 16.435 -0.015 h 0 c 2.204 2.195 3.42 5.118 3.423 8.229 c 0.003 3.111 -1.207 6.037 -3.407 8.236 l -3.37 3.37 l 38.655 0 C 84.782 33.375 90 38.593 90 45.007 c 0 6.414 -5.218 11.632 -11.632 11.632 H 39.713 l 3.355 3.355 c 4.535 4.535 4.535 11.915 0 16.45 C 40.801 78.712 37.823 79.846 34.844 79.846 z M 34.858 12.155 c -2.467 0 -4.934 0.938 -6.811 2.815 L 4.821 38.196 C 3.002 40.016 2 42.434 2 45.007 c 0 2.573 1.002 4.991 2.821 6.811 L 28.033 75.03 c 3.755 3.754 9.866 3.755 13.622 0 c 3.755 -3.756 3.755 -9.866 0 -13.622 l -5.063 -5.063 c -0.286 -0.286 -0.372 -0.716 -0.217 -1.09 s 0.52 -0.617 0.924 -0.617 h 41.069 c 5.311 0 9.632 -4.321 9.632 -9.632 c 0 -5.311 -4.321 -9.632 -9.632 -9.632 l -41.069 0 c -0.404 0 -0.769 -0.244 -0.924 -0.617 s -0.069 -0.804 0.217 -1.09 l 5.077 -5.077 c 1.822 -1.822 2.823 -4.244 2.821 -6.82 c -0.002 -2.576 -1.009 -4.996 -2.833 -6.813 c 0 0 0 0 0 0 C 39.781 13.089 37.319 12.155 34.858 12.155 z" transform=" matrix(1 0 0 1 0 0) " stroke-linecap="round"></path>
      </g>
    </g>
  </symbol>
  <symbol id="follow" viewBox="0 0 512 512">
        <g>
            <g>
                <g>
                    <path d="M492,127.5h-18v-18c0-11.046-8.954-20-20-20c-11.046,0-20,8.954-20,20v18h-18c-11.046,0-20,8.954-20,20s8.954,20,20,20 h18v18c0,11.046,8.954,20,20,20c11.046,0,20-8.954,20-20v-18h18c11.046,0,20-8.954,20-20S503.046,127.5,492,127.5z"/>
                    <path d="M315.409,249.231C345.854,225.711,365.5,188.86,365.5,147.5C365.5,76.645,307.855,19,237,19S108.5,76.645,108.5,147.5 c0,41.359,19.646,78.211,50.091,101.731C68.293,280.793,0,367.427,0,473c0,11.046,8.954,20,20,20h434c11.046,0,20-8.954,20-20 C474,367.401,405.656,280.775,315.409,249.231z M148.5,147.5c0-48.799,39.701-88.5,88.5-88.5s88.5,39.701,88.5,88.5 S285.799,236,237,236S148.5,196.299,148.5,147.5z M41.008,453C51.061,353.73,135.123,276,237,276s185.939,77.73,195.992,177 H41.008z"/>
                </g>
            </g>
        </g>
        <g></g>
        <g></g>
        <g></g>
        <g></g>
        <g></g>
        <g></g>
        <g></g>
        <g></g>
        <g></g>
        <g></g>
        <g></g>
        <g></g>
        <g></g>
        <g></g>
        <g></g>
    </symbol>
    <symbol id="unfollow" viewBox="0 0 2150.000000 1991.000000">
        <g transform="translate(0.000000,1991.000000) scale(0.100000,-0.100000)" stroke="none">
            <path d="M9705 19824 c-266 -20 -353 -28 -503 -50 -886 -126 -1735 -477 -2447 -1012 -401 -300 -787 -686 -1087 -1087 -1066 -1419 -1353 -3282 -765 -4965 78 -224 147 -388 263 -620 197 -395 417 -729 712 -1080 142 -169 499 -520 665 -655 74 -60 136 -112 136 -115 1 -3 -36 -18 -81 -34 -147 -52 -524 -204 -693 -281 -929 -421 -1765 -966 -2545 -1659 -297 -264 -738 -723 -1010 -1051 -1014 -1222 -1716 -2666 -2050 -4216 -113 -529 -184 -1086 -210 -1664 -20 -448 -10 -582 58 -742 86 -205 267 -380 475 -458 160 -60 -608 -55 9377 -53 8714 3 9138 4 9195 21 365 108 595 370 635 727 12 103 -2 580 -25 868 -235 2945 -1742 5583 -4175 7304 -683 483 -1563 942 -2298 1198 -51 18 -91 37 -90 41 2 5 48 45 103 89 247 200 516 467 734 729 667 803 1073 1752 1203 2813 19 161 22 232 23 593 0 419 -3 473 -46 775 -185 1300 -858 2500 -1879 3350 -614 511 -1335 879 -2105 1073 -282 72 -541 116 -855 147 -108 11 -626 21 -715 14z m495 -1674 c684 -48 1321 -273 1878 -664 823 -578 1381 -1483 1526 -2476 31 -211 38 -352 33 -620 -6 -282 -18 -398 -67 -645 -97 -490 -315 -993 -609 -1404 -569 -794 -1421 -1332 -2371 -1495 -241 -42 -351 -50 -635 -50 -300 0 -449 13 -715 65 -1154 226 -2152 1019 -2640 2097 -481 1064 -427 2308 144 3317 309 545 760 1014 1286 1337 651 400 1417 590 2170 538z m340 -9050 c856 -65 1665 -249 2432 -554 1548 -615 2879 -1690 3804 -3071 652 -973 1079 -2042 1273 -3185 28 -167 71 -480 71 -521 0 -19 -93 -19 -8163 -19 l-8164 0 14 113 c198 1677 888 3218 2008 4487 161 183 538 559 715 714 1290 1131 2852 1823 4530 2006 151 16 289 27 565 44 114 7 771 -3 915 -14z"/>
            <path d="M17186 16285 c-207 -42 -353 -120 -496 -264 -169 -170 -256 -373 -267 -621 -12 -268 84 -518 271 -705 129 -129 264 -203 456 -251 l95 -24 1535 0 1535 0 95 24 c189 47 325 121 451 246 190 187 287 436 276 705 -11 256 -97 455 -272 630 -127 127 -243 194 -433 248 l-77 22 -1550 2 c-1280 1 -1562 -1 -1619 -12z"/>
        </g>
    </symbol>
    <symbol id="location" viewBox="0 0 512 512">
        <g>
            <g>
                <path d="M341.476,338.285c54.483-85.493,47.634-74.827,49.204-77.056C410.516,233.251,421,200.322,421,166 C421,74.98,347.139,0,256,0C165.158,0,91,74.832,91,166c0,34.3,10.704,68.091,31.19,96.446l48.332,75.84 C118.847,346.227,31,369.892,31,422c0,18.995,12.398,46.065,71.462,67.159C143.704,503.888,198.231,512,256,512 c108.025,0,225-30.472,225-90C481,369.883,393.256,346.243,341.476,338.285z M147.249,245.945 c-0.165-0.258-0.337-0.51-0.517-0.758C129.685,221.735,121,193.941,121,166c0-75.018,60.406-136,135-136 c74.439,0,135,61.009,135,136c0,27.986-8.521,54.837-24.646,77.671c-1.445,1.906,6.094-9.806-110.354,172.918L147.249,245.945z M256,482c-117.994,0-195-34.683-195-60c0-17.016,39.568-44.995,127.248-55.901l55.102,86.463 c2.754,4.322,7.524,6.938,12.649,6.938s9.896-2.617,12.649-6.938l55.101-86.463C411.431,377.005,451,404.984,451,422 C451,447.102,374.687,482,256,482z"/>
            </g>
        </g>
        <g>
            <g>
                <path d="M256,91c-41.355,0-75,33.645-75,75s33.645,75,75,75c41.355,0,75-33.645,75-75S297.355,91,256,91z M256,211 c-24.813,0-45-20.187-45-45s20.187-45,45-45s45,20.187,45,45S280.813,211,256,211z"/>
            </g>
        </g>
        <g></g>
        <g></g>
        <g></g>
        <g></g>
        <g></g>
        <g></g>
        <g></g>
        <g></g>
        <g></g>
        <g></g>
        <g></g>
        <g></g>
        <g></g>
        <g></g>
        <g></g>
    </symbol>
    <symbol id="profile" viewBox="-42 0 512 512.001">
        <path d="m210.351562 246.632812c33.882813 0 63.21875-12.152343 87.195313-36.128906 23.96875-23.972656 36.125-53.304687 36.125-87.191406 0-33.875-12.152344-63.210938-36.128906-87.191406-23.976563-23.96875-53.3125-36.121094-87.191407-36.121094-33.886718 0-63.21875 12.152344-87.191406 36.125s-36.128906 53.308594-36.128906 87.1875c0 33.886719 12.15625 63.222656 36.128906 87.195312 23.980469 23.96875 53.316406 36.125 87.191406 36.125zm-65.972656-189.292968c18.394532-18.394532 39.972656-27.335938 65.972656-27.335938 25.996094 0 47.578126 8.941406 65.976563 27.335938 18.394531 18.398437 27.339844 39.980468 27.339844 65.972656 0 26-8.945313 47.578125-27.339844 65.976562-18.398437 18.398438-39.980469 27.339844-65.976563 27.339844-25.992187 0-47.570312-8.945312-65.972656-27.339844-18.398437-18.394531-27.34375-39.976562-27.34375-65.976562 0-25.992188 8.945313-47.574219 27.34375-65.972656zm0 0"/>
        <path d="m426.128906 393.703125c-.691406-9.976563-2.089844-20.859375-4.148437-32.351563-2.078125-11.578124-4.753907-22.523437-7.957031-32.527343-3.3125-10.339844-7.808594-20.550781-13.375-30.335938-5.769532-10.15625-12.550782-19-20.160157-26.277343-7.957031-7.613282-17.699219-13.734376-28.964843-18.199219-11.226563-4.441407-23.667969-6.691407-36.976563-6.691407-5.226563 0-10.28125 2.144532-20.042969 8.5-6.007812 3.917969-13.035156 8.449219-20.878906 13.460938-6.707031 4.273438-15.792969 8.277344-27.015625 11.902344-10.949219 3.542968-22.066406 5.339844-33.042969 5.339844-10.96875 0-22.085937-1.796876-33.042968-5.339844-11.210938-3.621094-20.300782-7.625-26.996094-11.898438-7.769532-4.964844-14.800782-9.496094-20.898438-13.46875-9.753906-6.355468-14.808594-8.5-20.035156-8.5-13.3125 0-25.75 2.253906-36.972656 6.699219-11.257813 4.457031-21.003906 10.578125-28.96875 18.199219-7.609375 7.28125-14.390625 16.121094-20.15625 26.273437-5.558594 9.785157-10.058594 19.992188-13.371094 30.339844-3.199219 10.003906-5.875 20.945313-7.953125 32.523437-2.0625 11.476563-3.457031 22.363282-4.148437 32.363282-.679688 9.777344-1.023438 19.953125-1.023438 30.234375 0 26.726562 8.496094 48.363281 25.25 64.320312 16.546875 15.746094 38.4375 23.730469 65.066406 23.730469h246.53125c26.621094 0 48.511719-7.984375 65.0625-23.730469 16.757813-15.945312 25.253906-37.589843 25.253906-64.324219-.003906-10.316406-.351562-20.492187-1.035156-30.242187zm-44.90625 72.828125c-10.933594 10.40625-25.449218 15.464844-44.378906 15.464844h-246.527344c-18.933594 0-33.449218-5.058594-44.378906-15.460938-10.722656-10.207031-15.933594-24.140625-15.933594-42.585937 0-9.59375.316406-19.066407.949219-28.160157.617187-8.921874 1.878906-18.722656 3.75-29.136718 1.847656-10.285156 4.199219-19.9375 6.996094-28.675782 2.683593-8.378906 6.34375-16.675781 10.882812-24.667968 4.332031-7.617188 9.316407-14.152344 14.816407-19.417969 5.144531-4.925781 11.628906-8.957031 19.269531-11.980469 7.066406-2.796875 15.007812-4.328125 23.628906-4.558594 1.050781.558594 2.921875 1.625 5.953125 3.601563 6.167969 4.019531 13.277344 8.605469 21.136719 13.625 8.859375 5.648437 20.273437 10.75 33.910156 15.152344 13.941406 4.507812 28.160156 6.796875 42.273437 6.796875 14.113282 0 28.335938-2.289063 42.269532-6.792969 13.648437-4.410156 25.058594-9.507813 33.929687-15.164063 8.042969-5.140624 14.953125-9.59375 21.121094-13.617187 3.03125-1.972656 4.902344-3.042969 5.953125-3.601563 8.625.230469 16.566406 1.761719 23.636719 4.558594 7.636719 3.023438 14.121093 7.058594 19.265625 11.980469 5.5 5.261719 10.484375 11.796875 14.816406 19.421875 4.542969 7.988281 8.207031 16.289062 10.886719 24.660156 2.800781 8.75 5.15625 18.398438 7 28.675782 1.867187 10.433593 3.132812 20.238281 3.75 29.144531v.007812c.636719 9.058594.957031 18.527344.960937 28.148438-.003906 18.449219-5.214844 32.378906-15.9375 42.582031zm0 0"/>
    </symbol>
    <symbol id="messages" viewBox="0 0 612.041 612.041">
        <g>
            <g>
                <g>
                    <g>
                        <path d="M124.01,327.953l-59.086,47.293c-4.104,3.266-10.1,2.608-13.387-1.494c-1.395-1.754-2.072-3.865-2.072-5.957h-0.06v-40.639c-12.391-2.054-23.527-8.011-32.053-16.517l-0.02-0.039l-0.02,0.021C6.654,299.962,0,285.2,0,268.965V59.015 C0,42.779,6.654,28.018,17.312,17.36l0.677-0.618C28.627,6.443,43.109,0.048,58.987,0.048H404.82 c16.234,0,30.997,6.654,41.654,17.312c10.658,10.678,17.312,25.419,17.312,41.655v209.95c0,16.236-6.653,30.998-17.312,41.656 l-0.678,0.617c-10.638,10.299-25.101,16.715-40.978,16.715L124.01,327.953L124.01,327.953z M68.549,347.933l45.46-36.377 c1.733-1.713,4.124-2.748,6.733-2.748h284.077c10.718,0,20.499-4.304,27.689-11.236l0.418-0.478 c7.212-7.211,11.714-17.192,11.714-28.109V59.015c0-10.937-4.502-20.917-11.714-28.109c-7.211-7.211-17.19-11.713-28.129-11.713 H58.987c-10.718,0-20.519,4.303-27.69,11.235l-0.438,0.478c-7.211,7.212-11.713,17.192-11.713,28.109v209.95 c0,10.937,4.502,20.897,11.713,28.109l-0.02,0.02c7.172,7.152,17.053,11.615,27.91,11.695h0.239 c5.279,0,9.562,4.281,9.562,9.582L68.549,347.933L68.549,347.933z M17.989,16.762l12.869,0.618 C27.332,13.834,21.754,13.634,17.989,16.762L17.989,16.762z M445.797,311.238l-12.869-0.617 C436.454,314.146,442.052,314.345,445.797,311.238z"/>
                    </g>
                    <path d="M83.689,93.299c-5.279,0-9.582-4.303-9.582-9.582c0-5.279,4.303-9.563,9.582-9.563h296.428 c5.279,0,9.582,4.283,9.582,9.563c0,5.279-4.303,9.582-9.582,9.582H83.689z"/>
                    <path d="M83.689,152.266c-5.279,0-9.582-4.283-9.582-9.562c0-5.279,4.303-9.582,9.582-9.582h296.428 c5.279,0,9.582,4.303,9.582,9.582c0,5.279-4.303,9.562-9.582,9.562H83.689z"/>
                    <path d="M491.277,327.972c-5.279,0-9.563-4.283-9.563-9.582c0-5.278,4.283-9.582,9.563-9.582h37.054 c5.279,0,9.562,4.283,9.562,9.582c0,5.279-4.303,9.582-9.562,9.582H491.277z"/>
                    <path d="M231.903,386.939c-5.279,0-9.562-4.282-9.562-9.562s4.303-9.563,9.562-9.563h296.428c5.279,0,9.562,4.283,9.562,9.563 s-4.303,9.562-9.562,9.562H231.903z"/>
                    <path d="M231.903,445.925c-5.279,0-9.562-4.303-9.562-9.582s4.303-9.562,9.562-9.562h296.428c5.279,0,9.562,4.303,9.562,9.562 c0,5.279-4.303,9.582-9.562,9.582H231.903z"/>
                    <path d="M231.903,504.892c-5.279,0-9.562-4.303-9.562-9.582c0-5.278,4.303-9.582,9.562-9.582h209.97 c5.278,0,9.562,4.304,9.562,9.582c0,5.279-4.282,9.582-9.562,9.582H231.903z"/>
                    <path d="M148.214,367.775c0-5.278,4.303-9.562,9.562-9.562c5.279,0,9.583,4.283,9.583,9.562v135.861 c0,10.938,4.502,20.898,11.713,28.109l0.438,0.479c7.191,6.933,16.973,11.236,27.69,11.236h284.077c2.608,0,5,1.055,6.732,2.748 l45.5,36.416l0.021-29.604c0-5.258,4.281-9.521,9.542-9.521v-0.039c10.937,0,20.917-4.482,28.147-11.695l-0.02-0.02 c7.211-7.211,11.713-17.191,11.713-28.109V306.039c0-10.938-4.502-20.897-11.713-28.109l-0.438-0.478 c-7.19-6.933-16.973-11.236-27.689-11.236h-49.405c-5.278,0-9.582-4.283-9.582-9.582c0-5.279,4.304-9.562,9.582-9.562h49.405 c15.877,0,30.34,6.395,40.978,16.714l0.678,0.618c10.657,10.678,17.312,25.419,17.312,41.655v197.601 c0,16.233-6.654,30.977-17.312,41.653l-0.021-0.02l-0.021,0.02c-8.546,8.527-19.683,14.482-32.093,16.535l-0.021,40.619h-0.021 c0,2.092-0.678,4.184-2.092,5.957c-3.267,4.104-9.283,4.76-13.387,1.494l-59.087-47.293H207.178 c-15.877,0-30.34-6.396-40.978-16.695l-0.677-0.617c-10.678-10.678-17.312-25.438-17.312-41.653V367.775H148.214z"/>
                    <path d="M83.689,211.253c-5.279,0-9.582-4.303-9.582-9.563c0-5.279,4.303-9.582,9.582-9.582h209.97 c5.279,0,9.582,4.303,9.582,9.582c0,5.279-4.303,9.563-9.582,9.563H83.689z"/>
                </g>
            </g>
        </g>
        <g></g>
        <g></g>
        <g></g>
        <g></g>
        <g></g>
        <g></g>
        <g></g>
        <g></g>
        <g></g>
        <g></g>
        <g></g>
        <g></g>
        <g></g>
        <g></g>
        <g></g>
    </symbol>
    <symbol id="news" viewBox="0 0 512 512">
        <g>
            <path d="m497 121h-114v-89c0-8.284-6.716-15-15-15h-353c-8.284 0-15 6.716-15 15v388c0 41.355 33.645 75 75 75h362c41.355 0 75-33.645 75-75v-284c0-8.284-6.716-15-15-15zm-422 344c-24.813 0-45-20.187-45-45v-373h323c0 396.466-.189 374.424.344 380.077 1.304 13.906 6.49 27.019 14.691 37.923zm407-45c0 24.813-20.187 45-45 45-3.366 0-5.695 0-9 0-24.813 0-45-20.187-45-45v-269h99z"/>
            <path d="m304 89h-224c-8.284 0-15 6.716-15 15s6.716 15 15 15h224c8.284 0 15-6.716 15-15s-6.716-15-15-15z"/>
            <path d="m304 153h-224c-8.284 0-15 6.716-15 15s6.716 15 15 15h224c8.284 0 15-6.716 15-15s-6.716-15-15-15z"/>
            <path d="m304 393h-224c-8.284 0-15 6.716-15 15s6.716 15 15 15h224c8.284 0 15-6.716 15-15s-6.716-15-15-15z"/>
            <path d="m304 217h-112c-8.284 0-15 6.716-15 15v112c0 8.284 6.716 15 15 15h112c8.284 0 15-6.716 15-15v-112c0-8.284-6.716-15-15-15zm-15 112h-82v-82h82z"/>
            <path d="m80 271h48c8.284 0 15-6.716 15-15s-6.716-15-15-15h-48c-8.284 0-15 6.716-15 15s6.716 15 15 15z"/>
            <path d="m80 335h48c8.284 0 15-6.716 15-15s-6.716-15-15-15h-48c-8.284 0-15 6.716-15 15s6.716 15 15 15z"/>
        </g>
    </symbol>
    <symbol id="users" viewBox="0 0 505.4 505.4">
        <g>
            <g>
                <path d="M437.1,233.45c14.8-10.4,24.6-27.7,24.6-47.2c0-31.9-25.8-57.7-57.7-57.7c-31.9,0-57.7,25.8-57.7,57.7 c0,19.5,9.7,36.8,24.6,47.2c-12.7,4.4-24.3,11.2-34.1,20c-13.5-11.5-29.4-20.3-46.8-25.5c21.1-12.8,35.3-36.1,35.3-62.6 c0-40.4-32.7-73.1-73.1-73.1c-40.4,0-73.1,32.8-73.1,73.1c0,26.5,14.1,49.8,35.3,62.6c-17.2,5.2-32.9,13.9-46.3,25.2 c-9.8-8.6-21.2-15.3-33.7-19.6c14.8-10.4,24.6-27.7,24.6-47.2c0-31.9-25.8-57.7-57.7-57.7s-57.7,25.8-57.7,57.7 c0,19.5,9.7,36.8,24.6,47.2C28.5,247.25,0,284.95,0,329.25v6.6c0,0.2,0.2,0.4,0.4,0.4h122.3c-0.7,5.5-1.1,11.2-1.1,16.9v6.8 c0,29.4,23.8,53.2,53.2,53.2h155c29.4,0,53.2-23.8,53.2-53.2v-6.8c0-5.7-0.4-11.4-1.1-16.9H505c0.2,0,0.4-0.2,0.4-0.4v-6.6 C505.2,284.85,476.8,247.15,437.1,233.45z M362.3,186.15c0-23,18.7-41.7,41.7-41.7s41.7,18.7,41.7,41.7 c0,22.7-18.3,41.2-40.9,41.7c-0.3,0-0.5,0-0.8,0s-0.5,0-0.8,0C380.5,227.45,362.3,208.95,362.3,186.15z M194.9,165.35 c0-31.5,25.6-57.1,57.1-57.1s57.1,25.6,57.1,57.1c0,30.4-23.9,55.3-53.8,57c-1.1,0-2.2,0-3.3,0c-1.1,0-2.2,0-3.3,0 C218.8,220.65,194.9,195.75,194.9,165.35z M59.3,186.15c0-23,18.7-41.7,41.7-41.7s41.7,18.7,41.7,41.7c0,22.7-18.3,41.2-40.9,41.7 c-0.3,0-0.5,0-0.8,0s-0.5,0-0.8,0C77.6,227.45,59.3,208.95,59.3,186.15z M125.5,320.15H16.2c4.5-42.6,40.5-76,84.2-76.3 c0.2,0,0.4,0,0.6,0s0.4,0,0.6,0c20.8,0.1,39.8,7.8,54.5,20.3C141.7,279.75,131,298.95,125.5,320.15z M366.8,359.95 c0,20.5-16.7,37.2-37.2,37.2h-155c-20.5,0-37.2-16.7-37.2-37.2v-6.8c0-62.1,49.6-112.9,111.3-114.7c1.1,0.1,2.3,0.1,3.4,0.1 s2.3,0,3.4-0.1c61.7,1.8,111.3,52.6,111.3,114.7V359.95z M378.7,320.15c-5.5-21.1-16-40-30.3-55.6c14.8-12.8,34-20.5,55-20.7 c0.2,0,0.4,0,0.6,0s0.4,0,0.6,0c43.7,0.3,79.7,33.7,84.2,76.3H378.7z"/>
            </g>
        </g>
        <g></g>
        <g></g>
        <g></g>
        <g></g>
        <g></g>
        <g></g>
        <g></g>
        <g></g>
        <g></g>
        <g></g>
        <g></g>
        <g></g>
        <g></g>
        <g></g>
        <g></g>
    </symbol>
    <symbol id="settings" viewBox="0 0 480 480">
        <g>
            <g>
                <path d="M296,280h-8.8c-3.31,0.006-6.271-2.059-7.408-5.168c-0.976-2.56-2.024-5.064-3.152-7.544 c-1.402-3.016-0.762-6.587,1.6-8.928l6.272-6.28c9.311-9.393,9.294-24.541-0.04-33.912l-22.608-22.608 c-9.383-9.328-24.537-9.328-33.92,0l-6.272,6.264c-2.346,2.353-5.911,2.992-8.928,1.6c-2.48-1.128-4.984-2.176-7.552-3.2 c-3.125-1.129-5.204-4.101-5.192-7.424V184c0-13.255-10.745-24-24-24h-32c-13.255,0-24,10.745-24,24v8.8 c0.006,3.31-2.059,6.271-5.168,7.408c-2.56,0.976-5.064,2.024-7.544,3.152c-3.017,1.395-6.583,0.756-8.928-1.6l-6.28-6.272 c-9.382-9.322-24.53-9.322-33.912,0l-22.608,22.68c-9.328,9.383-9.328,24.537,0,33.92l6.264,6.272 c2.362,2.341,3.002,5.912,1.6,8.928c-1.128,2.48-2.176,4.984-3.16,7.552c-1.145,3.127-4.134,5.194-7.464,5.16H24 c-13.255,0-24,10.745-24,24v32c0,13.255,10.745,24,24,24h8.8c3.31-0.006,6.271,2.059,7.408,5.168 c0.976,2.56,2.024,5.064,3.152,7.544c1.402,3.016,0.762,6.587-1.6,8.928l-6.272,6.28c-9.322,9.382-9.322,24.53,0,33.912 l22.608,22.608c9.383,9.328,24.537,9.328,33.92,0l6.272-6.264c2.346-2.353,5.911-2.992,8.928-1.6 c2.48,1.128,4.984,2.176,7.552,3.2c3.141,1.116,5.238,4.091,5.232,7.424v8.8c0,13.255,10.745,24,24,24h32 c13.255,0,24-10.745,24-24v-8.8c-0.006-3.31,2.059-6.271,5.168-7.408c2.56-0.976,5.064-2.024,7.544-3.152 c3.017-1.395,6.583-0.756,8.928,1.6l6.28,6.272c9.395,9.307,24.539,9.289,33.912-0.04l22.608-22.608 c9.328-9.383,9.328-24.537,0-33.92l-6.264-6.272c-2.362-2.341-3.002-5.912-1.6-8.928c1.128-2.48,2.176-4.984,3.2-7.552 c1.129-3.125,4.101-5.204,7.424-5.192h8.8c13.255,0,24-10.745,24-24v-32C320,290.745,309.255,280,296,280z M304,336 c0,4.418-3.582,8-8,8h-8.8c-9.945,0.037-18.845,6.184-22.4,15.472c-0.848,2.24-1.765,4.445-2.752,6.616 c-4.113,9.08-2.205,19.756,4.8,26.848l6.256,6.264c3.126,3.122,3.129,8.188,0.006,11.314c-0.002,0.002-0.004,0.004-0.006,0.006 l-22.608,22.608c-3.124,3.123-8.188,3.123-11.312,0l-6.272-6.264c-7.089-7.011-17.769-8.92-26.848-4.8 c-2.168,0.984-4.376,1.904-6.6,2.752C190.183,428.37,184.04,437.262,184,447.2v8.8c0,4.418-3.582,8-8,8h-32c-4.418,0-8-3.582-8-8 v-8.8c-0.037-9.945-6.184-18.845-15.472-22.4c-2.24-0.848-4.445-1.765-6.616-2.752c-9.08-4.111-19.755-2.202-26.848,4.8 l-6.264,6.256c-3.122,3.126-8.188,3.129-11.314,0.006c-0.002-0.002-0.004-0.004-0.006-0.006L46.872,410.52 c-3.123-3.124-3.123-8.188,0-11.312l6.264-6.272c7.005-7.092,8.913-17.768,4.8-26.848c-0.984-2.168-1.904-4.376-2.752-6.6 C51.638,350.197,42.744,344.044,32.8,344H24c-4.418,0-8-3.582-8-8v-32c0-4.418,3.582-8,8-8h8.8 c9.945-0.037,18.845-6.184,22.4-15.472c0.848-2.24,1.765-4.445,2.752-6.616c4.113-9.08,2.204-19.756-4.8-26.848l-6.288-6.264 c-3.126-3.122-3.129-8.188-0.006-11.314c0.002-0.002,0.004-0.004,0.006-0.006l22.608-22.608c3.124-3.123,8.188-3.123,11.312,0 l6.272,6.264c7.089,7.011,17.769,8.92,26.848,4.8c2.168-0.984,4.376-1.904,6.6-2.752c9.294-3.543,15.451-12.438,15.496-22.384V184 c0-4.418,3.582-8,8-8h32c4.418,0,8,3.582,8,8v8.8c0.037,9.945,6.184,18.845,15.472,22.4c2.24,0.848,4.445,1.765,6.616,2.752 c9.079,4.12,19.759,2.211,26.848-4.8l6.264-6.256c3.136-3.102,8.184-3.102,11.32,0l22.608,22.608 c3.123,3.124,3.123,8.188,0,11.312l-6.264,6.272c-7.004,7.092-8.913,17.768-4.8,26.848c0.984,2.168,1.904,4.376,2.752,6.6 c3.554,9.281,12.446,15.424,22.384,15.464h8.8c4.418,0,8,3.582,8,8V336z"/>
            </g>
        </g>
        <g>
            <g>
                <path d="M231.84,316.8c-0.08-1.92-0.216-3.832-0.448-5.736c-0.256-2.048-0.56-4.08-0.984-6.072c-0.28-1.304-0.648-2.592-1-3.888 c-0.448-1.648-0.952-3.272-1.512-4.872c-0.392-1.112-0.8-2.216-1.216-3.312c-1.03-2.562-2.208-5.063-3.528-7.488 c-0.104-0.184-0.168-0.384-0.272-0.568c-2.081-3.704-4.491-7.215-7.2-10.488c-0.232-0.288-0.496-0.56-0.736-0.84 c-1.104-1.304-2.24-2.568-3.432-3.776c-0.624-0.648-1.28-1.256-1.936-1.88c-0.8-0.744-1.6-1.48-2.4-2.184 c-0.971-0.843-1.96-1.659-2.968-2.448l-1.312-0.976C190.517,253,175.466,247.992,160,248c-0.8,0-1.6,0.12-2.4,0.152 c-1.704,0.048-3.416,0.144-5.136,0.32c-0.904,0.096-1.816,0.2-2.72,0.328c-2.608,0.343-5.196,0.827-7.752,1.448 c-38.521,9.954-61.679,49.252-51.725,87.773c6.56,25.384,26.392,45.2,51.781,51.739c0.128,0,0.264,0.04,0.4,0.072 c2.763,0.689,5.562,1.224,8.384,1.6c1.864,0.232,3.728,0.28,5.6,0.368c1.248,0.064,2.4,0.248,3.704,0.248 c2.28,0,4.648-0.152,7.064-0.392c0.256,0,0.512-0.072,0.8-0.104c1.944-0.216,3.912-0.504,5.92-0.904 c0.8-0.152,1.544-0.352,2.312-0.528c1.408-0.328,2.808-0.672,4.248-1.096c1.12-0.336,2.208-0.728,3.304-1.112 c1.096-0.384,2.232-0.8,3.368-1.232c1.136-0.432,2.088-0.928,3.12-1.408c1.344-0.616,2.68-1.224,4-1.944h0.048 c7.466-3.997,14.362-8.977,20.504-14.808c1.659-1.548,3.102-3.314,4.288-5.248c6.244-10.01,10.346-21.205,12.048-32.88 c0.224-1.544,0.424-3.088,0.544-4.664c0.112-1.448,0.192-2.888,0.224-4.328c0-0.456,0.064-0.888,0.064-1.344 C232,318.928,231.888,317.888,231.84,316.8z M215.896,322.04c0,0.664-0.056,1.328-0.096,1.984 c-0.144,1.936-0.392,3.872-0.72,5.816c-2.99,16.633-13.317,31.033-28.112,39.2c-0.992,0.52-1.968,1.008-2.944,1.456l-0.664,0.32 c-4.648,2.11-9.554,3.595-14.592,4.416c-0.352,0.056-0.712,0.12-1.072,0.168c-1,0.144-1.984,0.264-2.96,0.352 c-1.288,0.112-2.584,0.176-3.904,0.2c-0.56,0-1.112,0-1.672,0c-1.893-0.022-3.783-0.139-5.664-0.352l-0.96-0.112 c-2.2-0.288-4.382-0.699-6.536-1.232c-29.962-7.669-48.034-38.175-40.366-68.137c5.067-19.798,20.517-35.264,40.31-40.351l0-0.008 c4.596-1.159,9.316-1.751,14.056-1.76c2.287,0.013,4.572,0.168,6.84,0.464c0.608,0.072,1.208,0.184,1.808,0.272 c1.728,0.272,3.44,0.616,5.128,1.048c0.552,0.144,1.104,0.272,1.648,0.424c4.254,1.228,8.349,2.952,12.2,5.136 c0.616,0.36,1.216,0.736,1.824,1.112c1.264,0.8,2.488,1.6,3.696,2.512c0.648,0.472,1.304,0.936,1.928,1.44 c1.57,1.254,3.073,2.589,4.504,4c0.568,0.576,1.088,1.208,1.64,1.808c0.92,1,1.816,2.024,2.672,3.104 c0.592,0.744,1.16,1.512,1.72,2.288c0.8,1.152,1.6,2.352,2.32,3.568c0.4,0.664,0.8,1.312,1.208,1.992 c1.032,1.899,1.951,3.857,2.752,5.864c0.32,0.8,0.592,1.6,0.88,2.4c0.52,1.472,0.968,2.96,1.36,4.464 c0.2,0.8,0.424,1.512,0.592,2.288c0.467,2.162,0.806,4.35,1.016,6.552c0.048,0.584,0.048,1.176,0.088,1.76 C215.936,318.336,215.968,320.184,215.896,322.04z"/>
            </g>
        </g>
        <g>
            <g>
                <path d="M456,168h-25.16c-3.355,0.034-6.356-2.079-7.456-5.248c-2.481-7.431-5.483-14.679-8.984-21.688 c-1.486-3.027-0.867-6.666,1.536-9.032l17.84-17.864c9.364-9.371,9.364-24.557,0-33.928L399.76,46.28 c-9.371-9.364-24.557-9.364-33.928,0L348,64.104c-2.363,2.402-5.997,3.024-9.024,1.544c-7.01-3.519-14.26-6.537-21.696-9.032 c-3.182-1.089-5.31-4.093-5.28-7.456V24c0-13.255-10.745-24-24-24h-48c-13.255,0-24,10.745-24,24v25.16 c0.034,3.355-2.078,6.356-5.248,7.456c-7.432,2.494-14.68,5.51-21.688,9.024c-3.027,1.491-6.668,0.872-9.032-1.536l-17.864-17.84 c-9.382-9.337-24.546-9.337-33.928,0L94.288,80.216c-9.369,9.372-9.369,24.564,0,33.936l26.232,26.28 c3.173,3.074,8.238,2.994,11.312-0.18c2.999-3.096,3.006-8.012,0.016-11.116L105.6,102.864c-3.123-3.124-3.123-8.188,0-11.312 L139.552,57.6c3.124-3.123,8.188-3.123,11.312,0l17.872,17.84c7.231,7.274,18.311,9.092,27.488,4.512 c6.337-3.173,12.889-5.897,19.608-8.152c9.698-3.283,16.21-12.401,16.168-22.64V24c0-4.418,3.582-8,8-8h48c4.418,0,8,3.582,8,8 v25.16c-0.041,10.237,6.471,19.352,16.168,22.632c6.722,2.256,13.277,4.982,19.616,8.16c9.179,4.556,20.244,2.736,27.48-4.52 L377.136,57.6c3.124-3.123,8.188-3.123,11.312,0L422.4,91.56c3.118,3.123,3.118,8.181,0,11.304l-17.84,17.872 c-7.267,7.235-9.084,18.31-4.512,27.488c3.173,6.337,5.897,12.889,8.152,19.608c3.281,9.7,12.4,16.212,22.64,16.168H456 c4.418,0,8,3.582,8,8v48c0,4.418-3.582,8-8,8h-25.16c-10.237-0.041-19.352,6.471-22.632,16.168 c-2.255,6.722-4.982,13.277-8.16,19.616c-4.564,9.178-2.743,20.247,4.52,27.48l17.84,17.872c3.123,3.124,3.123,8.188,0,11.312 L388.44,374.4c-3.123,3.118-8.181,3.118-11.304,0l-26.288-26.232c-3.074-3.174-8.139-3.254-11.312-0.18 c-3.174,3.074-3.254,8.139-0.18,11.312c0.064,0.066,0.13,0.132,0.196,0.196l26.28,26.232c9.371,9.364,24.557,9.364,33.928,0 l33.952-33.944c9.369-9.372,9.369-24.564,0-33.936L415.896,300c-2.4-2.364-3.021-5.997-1.544-9.024 c3.519-7.01,6.537-14.26,9.032-21.696c1.089-3.182,4.093-5.31,7.456-5.28H456c13.255,0,24-10.745,24-24v-48 C480,178.745,469.255,168,456,168z"/>
            </g>
        </g>
        <g>
            <g>
                <path d="M337.536,142.464c-40.638-40.553-106.434-40.553-147.072,0c-3.069,3.178-2.981,8.243,0.197,11.312 c3.1,2.994,8.015,2.994,11.115,0c34.135-34.596,89.852-34.969,124.448-0.834c34.596,34.135,34.969,89.852,0.834,124.448 c-0.276,0.28-0.554,0.558-0.834,0.834c-3.178,3.07-3.266,8.134-0.196,11.312c3.07,3.178,8.134,3.266,11.312,0.196 c0.066-0.064,0.132-0.13,0.196-0.196C378.089,248.898,378.089,183.102,337.536,142.464z"/>
            </g>
        </g>
        <g></g>
        <g></g>
        <g></g>
        <g></g>
        <g></g>
        <g></g>
        <g></g>
        <g></g>
        <g></g>
        <g></g>
        <g></g>
        <g></g>
        <g></g>
        <g></g>
        <g></g>
    </symbol>
</svg>