<svg xmlns="http://www.w3.org/2000/svg"> <symbol id="follow" viewBox="0 0 512 512"> <g> <g> <g> <path d="M492,127.5h-18v-18c0-11.046-8.954-20-20-20c-11.046,0-20,8.954-20,20v18h-18c-11.046,0-20,8.954-20,20s8.954,20,20,20 h18v18c0,11.046,8.954,20,20,20c11.046,0,20-8.954,20-20v-18h18c11.046,0,20-8.954,20-20S503.046,127.5,492,127.5z"/> <path d="M315.409,249.231C345.854,225.711,365.5,188.86,365.5,147.5C365.5,76.645,307.855,19,237,19S108.5,76.645,108.5,147.5 c0,41.359,19.646,78.211,50.091,101.731C68.293,280.793,0,367.427,0,473c0,11.046,8.954,20,20,20h434c11.046,0,20-8.954,20-20 C474,367.401,405.656,280.775,315.409,249.231z M148.5,147.5c0-48.799,39.701-88.5,88.5-88.5s88.5,39.701,88.5,88.5 S285.799,236,237,236S148.5,196.299,148.5,147.5z M41.008,453C51.061,353.73,135.123,276,237,276s185.939,77.73,195.992,177 H41.008z"/> </g> </g> </g> <g></g> <g></g> <g></g> <g></g> <g></g> <g></g> <g></g> <g></g> <g></g> <g></g> <g></g> <g></g> <g></g> <g></g> <g></g> </symbol> <symbol id="unfollow" viewBox="0 0 2150.000000 1991.000000"> <g transform="translate(0.000000,1991.000000) scale(0.100000,-0.100000)" stroke="none"> <path d="M9705 19824 c-266 -20 -353 -28 -503 -50 -886 -126 -1735 -477 -2447 -1012 -401 -300 -787 -686 -1087 -1087 -1066 -1419 -1353 -3282 -765 -4965 78 -224 147 -388 263 -620 197 -395 417 -729 712 -1080 142 -169 499 -520 665 -655 74 -60 136 -112 136 -115 1 -3 -36 -18 -81 -34 -147 -52 -524 -204 -693 -281 -929 -421 -1765 -966 -2545 -1659 -297 -264 -738 -723 -1010 -1051 -1014 -1222 -1716 -2666 -2050 -4216 -113 -529 -184 -1086 -210 -1664 -20 -448 -10 -582 58 -742 86 -205 267 -380 475 -458 160 -60 -608 -55 9377 -53 8714 3 9138 4 9195 21 365 108 595 370 635 727 12 103 -2 580 -25 868 -235 2945 -1742 5583 -4175 7304 -683 483 -1563 942 -2298 1198 -51 18 -91 37 -90 41 2 5 48 45 103 89 247 200 516 467 734 729 667 803 1073 1752 1203 2813 19 161 22 232 23 593 0 419 -3 473 -46 775 -185 1300 -858 2500 -1879 3350 -614 511 -1335 879 -2105 1073 -282 72 -541 116 -855 147 -108 11 -626 21 -715 14z m495 -1674 c684 -48 1321 -273 1878 -664 823 -578 1381 -1483 1526 -2476 31 -211 38 -352 33 -620 -6 -282 -18 -398 -67 -645 -97 -490 -315 -993 -609 -1404 -569 -794 -1421 -1332 -2371 -1495 -241 -42 -351 -50 -635 -50 -300 0 -449 13 -715 65 -1154 226 -2152 1019 -2640 2097 -481 1064 -427 2308 144 3317 309 545 760 1014 1286 1337 651 400 1417 590 2170 538z m340 -9050 c856 -65 1665 -249 2432 -554 1548 -615 2879 -1690 3804 -3071 652 -973 1079 -2042 1273 -3185 28 -167 71 -480 71 -521 0 -19 -93 -19 -8163 -19 l-8164 0 14 113 c198 1677 888 3218 2008 4487 161 183 538 559 715 714 1290 1131 2852 1823 4530 2006 151 16 289 27 565 44 114 7 771 -3 915 -14z"/> <path d="M17186 16285 c-207 -42 -353 -120 -496 -264 -169 -170 -256 -373 -267 -621 -12 -268 84 -518 271 -705 129 -129 264 -203 456 -251 l95 -24 1535 0 1535 0 95 24 c189 47 325 121 451 246 190 187 287 436 276 705 -11 256 -97 455 -272 630 -127 127 -243 194 -433 248 l-77 22 -1550 2 c-1280 1 -1562 -1 -1619 -12z"/> </g> </symbol> <symbol id="location" viewBox="0 0 512 512"> <g> <g> <path d="M341.476,338.285c54.483-85.493,47.634-74.827,49.204-77.056C410.516,233.251,421,200.322,421,166 C421,74.98,347.139,0,256,0C165.158,0,91,74.832,91,166c0,34.3,10.704,68.091,31.19,96.446l48.332,75.84 C118.847,346.227,31,369.892,31,422c0,18.995,12.398,46.065,71.462,67.159C143.704,503.888,198.231,512,256,512 c108.025,0,225-30.472,225-90C481,369.883,393.256,346.243,341.476,338.285z M147.249,245.945 c-0.165-0.258-0.337-0.51-0.517-0.758C129.685,221.735,121,193.941,121,166c0-75.018,60.406-136,135-136 c74.439,0,135,61.009,135,136c0,27.986-8.521,54.837-24.646,77.671c-1.445,1.906,6.094-9.806-110.354,172.918L147.249,245.945z M256,482c-117.994,0-195-34.683-195-60c0-17.016,39.568-44.995,127.248-55.901l55.102,86.463 c2.754,4.322,7.524,6.938,12.649,6.938s9.896-2.617,12.649-6.938l55.101-86.463C411.431,377.005,451,404.984,451,422 C451,447.102,374.687,482,256,482z"/> </g> </g> <g> <g> <path d="M256,91c-41.355,0-75,33.645-75,75s33.645,75,75,75c41.355,0,75-33.645,75-75S297.355,91,256,91z M256,211 c-24.813,0-45-20.187-45-45s20.187-45,45-45s45,20.187,45,45S280.813,211,256,211z"/> </g> </g> <g> </g> <g> </g> <g> </g> <g> </g> <g> </g> <g> </g> <g> </g> <g> </g> <g> </g> <g> </g> <g> </g> <g> </g> <g> </g> <g> </g> <g> </g> </symbol> </svg>
