<svg xmlns="http://www.w3.org/2000/svg" display="none">
    <symbol id="upload" viewBox="-42 0 512 512.001">
    <g>
	<path d="M0,389.581C0,444.8,41.338,490.616,95.611,499.462l19.139,1.529h382.5l19.139-1.529C570.662,490.616,612,444.8,612,389.581
		c0-48.516-31.936-89.798-76.527-105.098c-1.614-96.084-82.343-173.474-181.653-173.474c-71.632,0-133.583,40.253-163.181,98.755
		c-13.993-15.022-34.244-24.48-56.777-24.48c-42.256,0-76.5,33.271-76.5,74.274c0,10.71,2.336,20.892,6.509,30.099
		C26.038,307.851,0,345.767,0,389.581z M97.225,299.644l-9.208-24.063c-2.142-4.618-3.227-9.542-3.227-14.66
		c0-19.973,20.196-49.655,51.881-49.655c10.877,0,23.618,5.424,30.934,13.13l29.905,20.808l25.426-33.91
		c28.819-42.951,77.39-72.466,132.136-72.466c77.251,0,153.501,73.635,154.725,147.242v26.094l26.9,7.203
		c30.321,10.211,50.657,37.666,50.657,68.322c0,35.523-36.387,80.033-73.051,85.875h-16.83H389.454v26.9h-28.18V375.282h55.998
		L306,250.1L194.727,375.282h55.525v125.182h-27.707v-26.9H117.699l-12.713-1.002c-36.665-5.842-77.167-49.322-77.167-84.873
		C27.818,359.927,51.491,315.417,97.225,299.644z"/>
	</g>
    </symbol>
	<symbol id="edit" viewBox="0 0 91 91">
	 <g>
        <path d="M36.682,45.397l-0.002,0.001c-0.002,0.002-0.002,0.004-0.002,0.004c-0.137,0.139-0.24,0.307-0.324,0.486   c-0.023,0.045-0.039,0.086-0.057,0.133c-0.018,0.046-0.043,0.088-0.057,0.137l-4.008,14.826c-0.158,0.588,0.01,1.215,0.439,1.646   c0.324,0.323,0.758,0.498,1.201,0.498c0.148,0,0.299-0.019,0.443-0.06l14.256-3.853c0.094,0.016,0.184,0.055,0.279,0.055   c0.436,0,0.871-0.166,1.203-0.498l23.086-23.088c1.23-1.231,1.91-2.868,1.91-4.609c0-1.741-0.68-3.378-1.91-4.609l-4.154-4.154   c-2.461-2.463-6.76-2.459-9.217,0L36.682,45.397L36.682,45.397z M62.174,24.715c1.174-1.177,3.23-1.176,4.408,0.001l4.154,4.153   c0.59,0.589,0.914,1.372,0.914,2.206s-0.324,1.616-0.914,2.206l-1.25,1.25l-8.564-8.563L62.174,24.715z M58.518,28.372l8.564,8.563   l-18.23,18.231l-8.566-8.564L58.518,28.372z M39.285,50.407l6.137,6.138l-9.135,2.471l2.469-9.136L39.285,50.407z"/>
        <rect height="15.087" transform="matrix(0.7072 0.707 -0.707 0.7072 45.0547 -26.2009)" width="3.4" x="52.459" y="33.749"/>
        <path d="M20.961,74.166h45.74c3.596,0,6.518-2.925,6.518-6.52V44.628H69.82v23.019c0,1.721-1.398,3.119-3.119,3.119H22.662V25.662   h29.012v-3.4H20.961c-0.939,0-1.699,0.761-1.699,1.7v48.503C19.262,73.404,20.021,74.166,20.961,74.166z"/>
    </g>
	</symbol>
	<symbol xmlns="http://www.w3.org/2000/svg" focusable="false" viewBox="0 0 12 12" id="github">
      <path fill="#000" d="M6 0a6 6 0 110 12A6 6 0 016 0zm0 .98C3.243.98 1 3.223 1 6a5.02 5.02 0 003.437 4.77.594.594 0 00.045.005c.203.01.279-.129.279-.25l-.007-.854c-1.39.303-1.684-.674-1.684-.674-.227-.58-.555-.734-.555-.734-.454-.312.034-.306.034-.306.365.026.604.288.708.43l.058.088c.446.767 1.17.546 1.455.418.046-.325.174-.546.317-.672-1.11-.127-2.277-.558-2.277-2.482 0-.548.195-.996.515-1.348l-.03-.085c-.064-.203-.152-.658.079-1.244l.04-.007c.124-.016.548-.013 1.335.522A4.77 4.77 0 016 3.408c.425.002.853.058 1.252.17.955-.65 1.374-.516 1.374-.516.272.692.1 1.202.05 1.33.32.35.513.799.513 1.347 0 1.93-1.169 2.354-2.283 2.478.18.155.34.462.34.93l-.006 1.378c0 .13.085.282.323.245A5.02 5.02 0 0011 6C11 3.223 8.757.98 6 .98z"></path>
  </symbol>
  <symbol xmlns="http://www.w3.org/2000/svg" viewBox="0 0 64 64" id="vk">
    <g id="_32-vk">
      <rect fill="#4489c8" height="64" rx="11.2" ry="11.2" width="64"></rect>
      <path fill="#fff" d="M9.62,19.77H17.3a.79.79,0,0,1,.74.51c.85,2.19,4.38,10.76,7.61,11.46,2.4,0,1.55-11.4-1.5-11.4-.8,0,1.42-1.42,1.57-1.48a16.38,16.38,0,0,1,8.66,0c1.53.64,1.79,2.43,1.83,3.95s-1.7,8,.59,8.7c3,.92,6.86-8.49,7.76-10.8a.79.79,0,0,1,.74-.5h8.55a.8.8,0,0,1,.74,1.11,74.74,74.74,0,0,1-6.31,11.52,1.59,1.59,0,0,0,.16,2C51,37.58,58,45.34,54,45.34H45.37a1.57,1.57,0,0,1-1.18-.53c-1.34-1.48-5.24-5.6-7-5.27-1.46.27-1.6,2.75-1.53,4.37a1.6,1.6,0,0,1-1.48,1.68c-1.53.09-3.62.13-3.81.12-6.1-.39-9.71-4.46-13.16-9A56.33,56.33,0,0,1,8.86,20.83.81.81,0,0,1,9.62,19.77Z"></path>
    </g>
  </symbol>
  <symbol xmlns="http://www.w3.org/2000/svg" viewBox="0 0 64 64" id="twitter">
    <g id="_6-twitter">
      <rect fill="#00aade" height="64" rx="11.2" ry="11.2" transform="translate(64 64) rotate(180)" width="64"></rect>
      <path fill="#fff" d="M47.2,20.8a8,8,0,0,0,4-4.8c-1.6,1.6-5,2.13-5,2.13A8,8,0,0,0,32.37,25.6H32a23.45,23.45,0,0,1-16.8-8.8S10.4,23.2,17.6,28c0,0-3.2,0-4-.8,0,0-.8,4.8,6.4,8a3.86,3.86,0,0,1-3.2,0c0,3.09,3.22,5.6,7.2,5.6,0,2.21-5.37,4-12,4C22.4,52,47.2,50.4,48.8,23.2l4-4Z"></path>
    </g>
  </symbol>
  <symbol id="website" xmlns="http://www.w3.org/2000/svg" viewBox="0 0 200 200">
    <path d="M100,175.69A75.69,75.69,0,1,1,175.69,100,75.78,75.78,0,0,1,100,175.69Zm0-141.38A65.69,65.69,0,1,0,165.69,100,65.77,65.77,0,0,0,100,34.31Z"></path>
    <path d="M100,175.69c-19.49,0-30-39-30-75.69s10.51-75.69,30-75.69,30,39,30,75.69S119.49,175.69,100,175.69Zm0-141.38c-8.15,0-20,25.59-20,65.69,0,18.33,2.5,35.49,7,48.32,3.73,10.55,8.82,17.37,13,17.37,8.15,0,20-25.59,20-65.69,0-18.33-2.5-35.49-7-48.32C109.23,41.13,104.14,34.31,100,34.31Z"></path>
    <path d="M170.69,105H29.31a5,5,0,0,1,0-10H170.69a5,5,0,0,1,0,10Z"></path>
    <path d="M163.05,73H37a5,5,0,0,1,0-10h126.1a5,5,0,0,1,0,10Z"></path>
    <path d="M163.05,137H37a5,5,0,0,1,0-10h126.1a5,5,0,0,1,0,10Z"></path>
  </symbol>
  <symbol xmlns="http://www.w3.org/2000/svg" xmlns:xlink="http://www.w3.org/1999/xlink" viewBox="0 0 48 48" id="instagram">
		<g id="img-instagram-black-logo-icon-147122">
			<path xmlns="http://www.w3.org/2000/svg" fill="black" fill-rule="evenodd" d="M0 24C0 10.7452 10.7452 0 24 0C37.2548 0 48 10.7452 48 24C48 37.2548 37.2548 48 24 48C10.7452 48 0 37.2548 0 24ZM24.0012 11.2C20.5249 11.2 20.0886 11.2152 18.7233 11.2773C17.3606 11.3397 16.4305 11.5555 15.6166 11.872C14.7747 12.1989 14.0606 12.6363 13.3491 13.348C12.6371 14.0595 12.1997 14.7736 11.8717 15.6152C11.5544 16.4294 11.3384 17.3598 11.2771 18.7219C11.216 20.0873 11.2 20.5238 11.2 24.0001C11.2 27.4764 11.2155 27.9114 11.2773 29.2767C11.34 30.6394 11.5557 31.5695 11.872 32.3834C12.1992 33.2253 12.6365 33.9394 13.3483 34.6509C14.0595 35.3629 14.7736 35.8013 15.615 36.1283C16.4294 36.4448 17.3598 36.6605 18.7222 36.7229C20.0876 36.7851 20.5236 36.8003 23.9996 36.8003C27.4762 36.8003 27.9111 36.7851 29.2765 36.7229C30.6391 36.6605 31.5703 36.4448 32.3848 36.1283C33.2264 35.8013 33.9394 35.3629 34.6506 34.6509C35.3626 33.9394 35.8 33.2253 36.128 32.3837C36.4427 31.5695 36.6587 30.6391 36.7227 29.277C36.784 27.9116 36.8 27.4764 36.8 24.0001C36.8 20.5238 36.784 20.0876 36.7227 18.7222C36.6587 17.3595 36.4427 16.4294 36.128 15.6155C35.8 14.7736 35.3626 14.0595 34.6506 13.348C33.9386 12.636 33.2266 12.1987 32.384 11.872C31.5679 11.5555 30.6373 11.3397 29.2746 11.2773C27.9092 11.2152 27.4746 11.2 23.9972 11.2H24.0012Z" clip-rule="evenodd"/><path xmlns="http://www.w3.org/2000/svg" fill="black" fill-rule="evenodd" d="M22.8529 13.5067C23.1937 13.5062 23.574 13.5067 24.0012 13.5067C27.4188 13.5067 27.8239 13.519 29.1735 13.5803C30.4215 13.6374 31.0989 13.8459 31.5501 14.0211C32.1474 14.2531 32.5733 14.5304 33.021 14.9784C33.469 15.4264 33.7464 15.8531 33.9789 16.4505C34.1541 16.9011 34.3629 17.5785 34.4197 18.8265C34.481 20.1758 34.4944 20.5812 34.4944 23.9972C34.4944 27.4132 34.481 27.8186 34.4197 29.1679C34.3626 30.4159 34.1541 31.0933 33.9789 31.5439C33.7469 32.1413 33.469 32.5666 33.021 33.0144C32.573 33.4624 32.1477 33.7397 31.5501 33.9717C31.0994 34.1477 30.4215 34.3557 29.1735 34.4128C27.8242 34.4741 27.4188 34.4874 24.0012 34.4874C20.5833 34.4874 20.1782 34.4741 18.8289 34.4128C17.5809 34.3552 16.9035 34.1466 16.4521 33.9714C15.8547 33.7394 15.428 33.4621 14.98 33.0141C14.532 32.5661 14.2547 32.1405 14.0222 31.5429C13.847 31.0922 13.6382 30.4149 13.5814 29.1669C13.52 27.8175 13.5078 27.4122 13.5078 23.994C13.5078 20.5758 13.52 20.1726 13.5814 18.8233C13.6384 17.5753 13.847 16.8979 14.0222 16.4467C14.2542 15.8494 14.532 15.4227 14.98 14.9747C15.428 14.5267 15.8547 14.2494 16.4521 14.0168C16.9033 13.8408 17.5809 13.6328 18.8289 13.5755C20.0097 13.5222 20.4673 13.5062 22.8529 13.5035V13.5067ZM30.8338 15.632C29.9858 15.632 29.2978 16.3193 29.2978 17.1675C29.2978 18.0155 29.9858 18.7035 30.8338 18.7035C31.6818 18.7035 32.3698 18.0155 32.3698 17.1675C32.3698 16.3195 31.6818 15.632 30.8338 15.632ZM24.0012 17.4267C20.371 17.4267 17.4278 20.37 17.4278 24.0001C17.4278 27.6303 20.371 30.5722 24.0012 30.5722C27.6314 30.5722 30.5735 27.6303 30.5735 24.0001C30.5735 20.37 27.6314 17.4267 24.0012 17.4267Z" clip-rule="evenodd"/><path xmlns="http://www.w3.org/2000/svg" fill="black" fill-rule="evenodd" d="M24.0012 19.7334C26.3575 19.7334 28.2679 21.6436 28.2679 24.0001C28.2679 26.3564 26.3575 28.2668 24.0012 28.2668C21.6446 28.2668 19.7345 26.3564 19.7345 24.0001C19.7345 21.6436 21.6446 19.7334 24.0012 19.7334Z" clip-rule="evenodd"/>
		</g>
  </symbol>
  <symbol version="1.0" xmlns="http://www.w3.org/2000/svg" preserveAspectRatio="xMidYMid meet" viewBox="0 0 512.000000 512.000000" id="youtube">
    <g transform="translate(0.000000,512.000000) scale(0.100000,-0.100000)" fill="#ff0000" stroke="none">
      <path d="M828 5109 c-251 -37 -480 -171 -630 -369 -67 -88 -142 -245 -170
-355 l-23 -90 0 -1735 0 -1735 23 -90 c30 -120 116 -291 192 -382 156 -188
383 -313 621 -343 115 -14 3323 -14 3438 0 431 55 776 400 831 831 14 115 14
3323 0 3438 -30 238 -155 465 -343 621 -88 74 -260 161 -377 192 l-85 23
-1710 1 c-940 1 -1736 -2 -1767 -7z m2382 -1559 c146 -6 303 -15 350 -20 153
-18 251 -85 311 -214 67 -144 84 -297 84 -756 0 -459 -17 -612 -84 -756 -60
-129 -157 -195 -311 -214 -327 -39 -1673 -39 -2000 0 -154 19 -255 89 -316
218 -63 134 -90 425 -81 872 7 295 16 409 43 520 51 205 161 307 359 330 229
27 1165 38 1645 20z"></path>
      <path d="M2280 2600 l0 -398 375 197 c206 108 375 198 375 201 0 3 -120 68
-267 145 -147 77 -316 165 -375 197 l-108 56 0 -398z"></path>
    </g>
  </symbol>
   <symbol version="1.1" xml:space="preserve" xmlns="http://www.w3.org/2000/svg" xmlns:xlink="http://www.w3.org/1999/xlink" viewBox="0 0 187 187" id="facebook">
    <defs></defs>
    <g id="Layer_x0020_1">
      <rect height="187" rx="18" ry="18" width="187" fill="#485992"></rect>
      <path fill="#FEFEFE" d="M131 79l0 -12c0,-6 4,-7 6,-7 3,0 18,0 18,0l0 -27 -24 0c-27,0 -33,20 -33,32l0 14 -15 0 0 19 0 12 16 0c0,35 0,77 0,77l30 0c0,0 0,-42 0,-77l23 0 1 -12 2 -19 -24 0z"></path>
    </g>
  </symbol>
  <symbol id="mainLink" version="1.1" xmlns="http://www.w3.org/2000/svg" xmlns:xlink="http://www.w3.org/1999/xlink" x="0px" y="0px" xml:space="preserve" viewBox="0 0 612 612">
    <g>
      <g id="Link">
        <g>
          <path d="M350.179,215.462c-6.693-4.303-14.497-5.47-21.707-3.863c-7.134,1.587-13.674,5.89-17.939,12.527
				c-4.284,6.674-5.45,14.439-3.862,21.611c1.567,7.172,5.871,13.75,12.526,18.016c27.674,17.729,44.179,47.832,44.179,80.497
				c0,25.551-9.945,49.553-27.999,67.606l-114.75,114.75c-18.073,18.073-42.094,28.019-67.626,28.019
				c-52.728,0-95.625-42.897-95.625-95.625c0-25.551,9.945-49.553,27.999-67.606l54.43-54.449c5.737-5.737,8.53-13.292,8.415-20.808
				c-0.134-7.172-2.926-14.287-8.415-19.757c-5.604-5.604-12.948-8.415-20.272-8.415c-7.344,0-14.688,2.792-20.272,8.415
				l-54.43,54.449C15.912,379.708,0,418.13,0,459c0,84.36,68.64,153,153,153c40.87,0,79.292-15.912,108.19-44.829l114.75-114.75
				c28.897-28.859,44.81-67.301,44.81-108.171C420.75,291.943,394.377,243.806,350.179,215.462z M459,0
				c-40.87,0-79.292,15.912-108.19,44.829l-114.75,114.75c-28.898,28.859-44.81,67.301-44.81,108.152
				c0,52.307,26.374,100.463,70.571,128.807c6.694,4.283,14.497,5.45,21.707,3.844c7.133-1.568,13.674-5.871,17.939-12.508
				c4.284-6.693,5.451-14.458,3.863-21.63c-1.568-7.172-5.871-13.751-12.527-17.997c-27.655-17.748-44.179-47.851-44.179-80.516
				c0-25.551,9.945-49.553,27.999-67.607l114.75-114.75C409.447,67.32,433.468,57.375,459,57.375
				c52.728,0,95.625,42.897,95.625,95.606c0,25.551-9.945,49.553-27.999,67.607l-54.43,54.43c-5.737,5.737-8.53,13.292-8.415,20.808
				c0.134,7.172,2.926,14.287,8.415,19.756c5.604,5.604,12.947,8.396,20.292,8.396c7.344,0,14.688-2.792,20.272-8.396l54.43-54.449
				C596.088,232.292,612,193.851,612,152.981C612,68.64,543.36,0,459,0z"></path>
        </g>
      </g>
    </g>
  </symbol>
  <symbol xmlns="http://www.w3.org/2000/svg" version="1.1" viewBox="0 0 32 32" id="form_error">
    <g transform="scale(2)">
      <circle fill="#f44336" cx="8" cy="8" r="7"></circle>
      <rect fill="#fff" width="2" height="10" x="-.98" y="-16.29" transform="rotate(135)"></rect>
      <rect fill="#fff" width="2" height="10" x="-12.29" y="-5.01" transform="rotate(-135)"></rect>
    </g>
  </symbol>
  <symbol xmlns="http://www.w3.org/2000/svg" version="1" viewBox="0 0 32 32" id="error_info">
    <rect fill="#db3c30" width="28" height="28" x="-30" y="-30" rx="14" ry="14" transform="matrix(0,-1,-1,0,0,0)"></rect>
    <g opacity=".2" transform="matrix(1 0 0 1.3846 -530 499.53)">
      <path d="m545-355h2v9.389h-2zm0 11.556h2v1.4445h-2z"></path>
    </g>
    <g transform="matrix(1 0 0 1.3846 -530 498.53)">
      <path fill="#fff" d="m545-355h2v9.389h-2zm0 11.556h2v1.4445h-2z"></path>
    </g>
    <path fill="#fff" opacity=".2" d="m16 2c-7.756 0-14 6.244-14 14 0 0.169 0.0195 0.333 0.0254 0.5 0.2637-7.5206 6.3874-13.5 13.975-13.5 7.587 0 13.711 5.9794 13.975 13.5 0.005-0.167 0.025-0.331 0.025-0.5 0-7.756-6.244-14-14-14z"></path>
    <path opacity=".2" d="m2.0254 16.5c-0.0059 0.167-0.0254 0.331-0.0254 0.5 0 7.756 6.244 14 14 14s14-6.244 14-14c0-0.16884-0.01952-0.33264-0.02539-0.5-0.264 7.521-6.388 13.5-13.975 13.5-7.5872 0-13.711-5.979-13.975-13.5z"></path>
  </symbol>
  <symbol version="1.1" xmlns="http://www.w3.org/2000/svg" xmlns:xlink="http://www.w3.org/1999/xlink" xmlnsSketch="http://www.bohemiancoding.com/sketch/ns" viewBox="0 0 57 64" id="logout">
    <g id="Page-1" stroke="none" stroke-width="1" fill-rule="evenodd" sketchType="MSPage">
      <g id="Logout" sketchType="MSLayerGroup" transform="translate(1.000000, 1.000000)" stroke="#6B6C6E" stroke-width="2">
        <path d="M38,32 L38,52 C38,53.1 37.1,54 36,54 L32.4,54" id="Shape" sketchType="MSShapeGroup"></path>
        <path d="M1.9,0 L36,0 C37.1,0 38,0.9 38,2 L38,26" id="Shape" sketchType="MSShapeGroup"></path>
        <path d="M0,2 C0,0.9 0.9,0 2,0 L30.1,8 C31.2,8 32.1,8.9 32.1,10 L32.1,60 C32.1,61.1 31.2,62 30.1,62 L2,54 C0.9,54 0,53.1 0,52 L0,2 L0,2 Z" id="Shape" sketchType="MSShapeGroup"></path>
        <circle id="Oval" sketchType="MSShapeGroup" cx="25.5" cy="34.5" r="1.5"></circle>
        <g id="Group" transform="translate(35.000000, 20.000000)" sketchType="MSShapeGroup">
          <path d="M13.2,13.7 L13.2,17.4 C13.2,17.7 13,18 12.6,18 L0.9,10.2 C0.6,10 0.3,9.9 0.3,9.6 L0.3,8.5 C0.3,8.3 0.5,8.1 0.9,7.9 L12.6,0 C12.9,0 13.1,0.3 13.1,0.6 L13.1,4" id="Shape"></path>
          <path d="M11.3,5 L21,5" id="Shape"></path>
          <path d="M11.3,13 L21,13" id="Shape"></path>
        </g>
      </g>
    </g>
  </symbol>
  <symbol version="1.0" xmlns="http://www.w3.org/2000/svg" preserveAspectRatio="xMidYMid meet" viewBox="0 0 512.000000 512.000000" id="login">
    <g transform="translate(0.000000,512.000000) scale(0.100000,-0.100000)" stroke="none">
      <path d="M2175 5108 c-27 -5 -87 -27 -133 -48 -108 -51 -222 -161 -270 -260
      -55 -113 -62 -160 -62 -411 0 -218 1 -227 23 -260 32 -49 105 -83 158 -74 53
      9 115 64 129 113 5 21 10 125 10 232 0 184 2 198 24 246 13 27 42 66 66 87 81
      69 55 67 834 66 l701 -1 -217 -73 c-280 -94 -342 -137 -412 -284 l-31 -66 -3
      -1707 -2 -1708 -368 0 c-412 0 -426 2 -502 67 -24 21 -53 60 -66 87 -22 48
      -24 62 -24 246 0 107 -5 211 -10 232 -14 49 -76 104 -129 113 -53 9 -126 -25
      -158 -74 -22 -33 -23 -42 -23 -260 0 -251 7 -298 62 -411 48 -99 162 -209 269
      -259 46 -22 111 -44 143 -50 36 -7 208 -11 433 -11 l373 0 0 -143 c0 -98 5
      -159 15 -193 23 -79 86 -168 155 -218 83 -61 145 -81 255 -81 l90 0 670 224
      c369 123 692 235 719 248 58 29 132 101 169 163 60 104 57 -22 57 2135 0 2139
      3 2017 -55 2124 -33 60 -114 140 -173 170 -103 53 -59 51 -1412 50 -747 -1
      -1275 -5 -1305 -11z m2594 -342 l26 -26 3 -1953 c3 -1809 2 -1954 -14 -1984
      -9 -18 -31 -38 -48 -46 -17 -8 -319 -110 -671 -227 -694 -231 -671 -226 -726
      -170 l-29 28 0 1961 0 1960 23 26 c18 21 142 65 677 245 710 238 707 237 759
      186z"></path>
            <path d="M1330 3829 c-83 -33 -126 -142 -86 -217 8 -15 137 -148 285 -297
      l271 -270 -849 -5 c-838 -5 -850 -5 -877 -26 -53 -39 -69 -71 -69 -134 0 -63
      16 -95 69 -134 27 -21 39 -21 877 -26 l849 -5 -271 -270 c-148 -148 -277 -282
      -285 -297 -8 -15 -14 -47 -14 -71 0 -113 126 -190 226 -139 23 12 214 196 456
      439 358 359 418 424 429 461 26 89 30 84 -429 545 -230 230 -434 427 -454 438
      -40 21 -88 24 -128 8z"></path>
          </g>
  </symbol>
  <symbol version="1.1" xmlns="http://www.w3.org/2000/svg" xmlns:xlink="http://www.w3.org/1999/xlink" xmlnsSketch="http://www.bohemiancoding.com/sketch/ns" viewBox="0 0 612 792" id="save">
    <g><g><defs><rect height="512" style="fill:#00AEEF" id="SVGID_1_" width="512" x="50" y="140"/></defs><clipPath style="fill:#00AEEF" id="SVGID_2_"><use style="overflow:visible; fill:#00AEEF" xlink:href="#SVGID_1_"/></clipPath><path style="fill:#FFF" class="st0" d="M562,619V254l0,0c-0.1-2.9-1.2-6.1-4.1-9L457.4,144.5c0,0-5.3-4.9-11.7-4.5l0,0H83c0,0-33,0-33,33v446    c0,0,0,33,33,33h446C529,652,562,652,562,619L562,619z M453,303c0,22-22,22-22,22H181c-22,0-22-22-22-22V198c0-22,22-22,22-22h250    c22,0,22,22,22,22V303L453,303z M526,594c0,22-22,22-22,22H108c-22,0-22-22-22-22V394c0-22,22-22,22-22h396c22,0,22,22,22,22V594    L526,594z M435,296v-91c0,0,0-15-15-15h-49c0,0-15,0-15,15v91c0,0,0,15,15,15h49C420,311,435,311,435,296L435,296z"/></g></g>
  </symbol>
   <symbol xmlns="http://www.w3.org/2000/svg" xmlns:xlink="http://www.w3.org/1999/xlink" version="1.1" xml:space="preserve" viewBox="0 0 256 256" id="left-arrow">
    <g transform="translate(128 128) scale(0.72 0.72)">
      <g transform="translate(-175.05 -175.05000000000004) scale(3.89 3.89)">
        <path d="M 34.844 79.846 c -2.979 0 -5.958 -1.134 -8.225 -3.401 L 3.407 53.231 C 1.21 51.035 0 48.114 0 45.007 c 0 -3.107 1.21 -6.028 3.407 -8.225 l 23.227 -23.227 c 4.526 -4.527 11.9 -4.534 16.435 -0.015 h 0 c 2.204 2.195 3.42 5.118 3.423 8.229 c 0.003 3.111 -1.207 6.037 -3.407 8.236 l -3.37 3.37 l 38.655 0 C 84.782 33.375 90 38.593 90 45.007 c 0 6.414 -5.218 11.632 -11.632 11.632 H 39.713 l 3.355 3.355 c 4.535 4.535 4.535 11.915 0 16.45 C 40.801 78.712 37.823 79.846 34.844 79.846 z M 34.858 12.155 c -2.467 0 -4.934 0.938 -6.811 2.815 L 4.821 38.196 C 3.002 40.016 2 42.434 2 45.007 c 0 2.573 1.002 4.991 2.821 6.811 L 28.033 75.03 c 3.755 3.754 9.866 3.755 13.622 0 c 3.755 -3.756 3.755 -9.866 0 -13.622 l -5.063 -5.063 c -0.286 -0.286 -0.372 -0.716 -0.217 -1.09 s 0.52 -0.617 0.924 -0.617 h 41.069 c 5.311 0 9.632 -4.321 9.632 -9.632 c 0 -5.311 -4.321 -9.632 -9.632 -9.632 l -41.069 0 c -0.404 0 -0.769 -0.244 -0.924 -0.617 s -0.069 -0.804 0.217 -1.09 l 5.077 -5.077 c 1.822 -1.822 2.823 -4.244 2.821 -6.82 c -0.002 -2.576 -1.009 -4.996 -2.833 -6.813 c 0 0 0 0 0 0 C 39.781 13.089 37.319 12.155 34.858 12.155 z" transform=" matrix(1 0 0 1 0 0) " stroke-linecap="round"></path>
      </g>
    </g>
  </symbol>
</svg>